%TF.GenerationSoftware,KiCad,Pcbnew,9.0.6*%
%TF.CreationDate,2026-01-08T21:46:16-05:00*%
%TF.ProjectId,espdroneea,65737064-726f-46e6-9565-612e6b696361,rev?*%
%TF.SameCoordinates,Original*%
%TF.FileFunction,Paste,Top*%
%TF.FilePolarity,Positive*%
%FSLAX46Y46*%
G04 Gerber Fmt 4.6, Leading zero omitted, Abs format (unit mm)*
G04 Created by KiCad (PCBNEW 9.0.6) date 2026-01-08 21:46:16*
%MOMM*%
%LPD*%
G01*
G04 APERTURE LIST*
G04 Aperture macros list*
%AMRoundRect*
0 Rectangle with rounded corners*
0 $1 Rounding radius*
0 $2 $3 $4 $5 $6 $7 $8 $9 X,Y pos of 4 corners*
0 Add a 4 corners polygon primitive as box body*
4,1,4,$2,$3,$4,$5,$6,$7,$8,$9,$2,$3,0*
0 Add four circle primitives for the rounded corners*
1,1,$1+$1,$2,$3*
1,1,$1+$1,$4,$5*
1,1,$1+$1,$6,$7*
1,1,$1+$1,$8,$9*
0 Add four rect primitives between the rounded corners*
20,1,$1+$1,$2,$3,$4,$5,0*
20,1,$1+$1,$4,$5,$6,$7,0*
20,1,$1+$1,$6,$7,$8,$9,0*
20,1,$1+$1,$8,$9,$2,$3,0*%
G04 Aperture macros list end*
%ADD10C,0.010000*%
%ADD11RoundRect,0.225000X0.250000X-0.225000X0.250000X0.225000X-0.250000X0.225000X-0.250000X-0.225000X0*%
%ADD12RoundRect,0.200000X-0.200000X-0.275000X0.200000X-0.275000X0.200000X0.275000X-0.200000X0.275000X0*%
%ADD13RoundRect,0.225000X-0.225000X-0.250000X0.225000X-0.250000X0.225000X0.250000X-0.225000X0.250000X0*%
%ADD14R,0.800000X1.000000*%
%ADD15R,1.500000X0.700000*%
%ADD16RoundRect,0.200000X-0.275000X0.200000X-0.275000X-0.200000X0.275000X-0.200000X0.275000X0.200000X0*%
%ADD17RoundRect,0.250000X0.650000X-1.000000X0.650000X1.000000X-0.650000X1.000000X-0.650000X-1.000000X0*%
%ADD18RoundRect,0.218750X0.218750X0.256250X-0.218750X0.256250X-0.218750X-0.256250X0.218750X-0.256250X0*%
%ADD19RoundRect,0.225000X-0.250000X0.225000X-0.250000X-0.225000X0.250000X-0.225000X0.250000X0.225000X0*%
%ADD20RoundRect,0.075000X-0.910000X-0.225000X0.910000X-0.225000X0.910000X0.225000X-0.910000X0.225000X0*%
%ADD21RoundRect,0.225000X0.225000X0.250000X-0.225000X0.250000X-0.225000X-0.250000X0.225000X-0.250000X0*%
%ADD22RoundRect,0.200000X0.275000X-0.200000X0.275000X0.200000X-0.275000X0.200000X-0.275000X-0.200000X0*%
%ADD23R,1.320800X0.558800*%
%ADD24RoundRect,0.225000X-0.225000X-0.225000X0.225000X-0.225000X0.225000X0.225000X-0.225000X0.225000X0*%
%ADD25RoundRect,0.062500X-0.337500X-0.062500X0.337500X-0.062500X0.337500X0.062500X-0.337500X0.062500X0*%
%ADD26RoundRect,0.062500X-0.062500X-0.337500X0.062500X-0.337500X0.062500X0.337500X-0.062500X0.337500X0*%
%ADD27RoundRect,0.150000X-0.601041X-0.388909X-0.388909X-0.601041X0.601041X0.388909X0.388909X0.601041X0*%
%ADD28RoundRect,0.250000X-0.954594X-0.601041X-0.601041X-0.954594X0.954594X0.601041X0.601041X0.954594X0*%
%ADD29RoundRect,0.150000X-0.150000X0.587500X-0.150000X-0.587500X0.150000X-0.587500X0.150000X0.587500X0*%
%ADD30RoundRect,0.112500X0.187500X0.112500X-0.187500X0.112500X-0.187500X-0.112500X0.187500X-0.112500X0*%
%ADD31RoundRect,0.112500X-0.112500X0.187500X-0.112500X-0.187500X0.112500X-0.187500X0.112500X0.187500X0*%
%ADD32RoundRect,0.075000X0.075000X-0.350000X0.075000X0.350000X-0.075000X0.350000X-0.075000X-0.350000X0*%
%ADD33RoundRect,0.075000X0.350000X0.075000X-0.350000X0.075000X-0.350000X-0.075000X0.350000X-0.075000X0*%
%ADD34R,0.600000X1.450000*%
%ADD35R,0.300000X1.450000*%
%ADD36RoundRect,0.150000X0.512500X0.150000X-0.512500X0.150000X-0.512500X-0.150000X0.512500X-0.150000X0*%
%ADD37RoundRect,0.200000X0.200000X0.275000X-0.200000X0.275000X-0.200000X-0.275000X0.200000X-0.275000X0*%
%ADD38RoundRect,0.150000X0.388909X-0.601041X0.601041X-0.388909X-0.388909X0.601041X-0.601041X0.388909X0*%
%ADD39RoundRect,0.250000X0.601041X-0.954594X0.954594X-0.601041X-0.601041X0.954594X-0.954594X0.601041X0*%
%ADD40RoundRect,0.150000X-0.700000X0.150000X-0.700000X-0.150000X0.700000X-0.150000X0.700000X0.150000X0*%
%ADD41RoundRect,0.250000X-1.100000X0.250000X-1.100000X-0.250000X1.100000X-0.250000X1.100000X0.250000X0*%
%ADD42RoundRect,0.150000X-0.388909X0.601041X-0.601041X0.388909X0.388909X-0.601041X0.601041X-0.388909X0*%
%ADD43RoundRect,0.250000X-0.601041X0.954594X-0.954594X0.601041X0.601041X-0.954594X0.954594X-0.601041X0*%
%ADD44R,1.500000X0.900000*%
%ADD45R,0.900000X1.500000*%
%ADD46R,1.050000X1.050000*%
%ADD47RoundRect,0.218750X0.256250X-0.218750X0.256250X0.218750X-0.256250X0.218750X-0.256250X-0.218750X0*%
%ADD48RoundRect,0.150000X0.601041X0.388909X0.388909X0.601041X-0.601041X-0.388909X-0.388909X-0.601041X0*%
%ADD49RoundRect,0.250000X0.954594X0.601041X0.601041X0.954594X-0.954594X-0.601041X-0.601041X-0.954594X0*%
%ADD50R,0.558800X1.320800*%
G04 APERTURE END LIST*
D10*
%TO.C,U5*%
X112145000Y-113810000D02*
X110855000Y-113810000D01*
X110855000Y-112170000D01*
X112145000Y-112170000D01*
X112145000Y-113810000D01*
G36*
X112145000Y-113810000D02*
G01*
X110855000Y-113810000D01*
X110855000Y-112170000D01*
X112145000Y-112170000D01*
X112145000Y-113810000D01*
G37*
%TD*%
D11*
%TO.C,C7*%
X127000000Y-121025000D03*
X127000000Y-119475000D03*
%TD*%
D12*
%TO.C,R24*%
X101137500Y-113650000D03*
X102787500Y-113650000D03*
%TD*%
D13*
%TO.C,C2*%
X132975000Y-114750000D03*
X134525000Y-114750000D03*
%TD*%
D14*
%TO.C,SW1*%
X141790000Y-126150000D03*
X144000000Y-126150000D03*
X141790000Y-118850000D03*
X144000000Y-118850000D03*
D15*
X141140000Y-124750000D03*
X141140000Y-121750000D03*
X141140000Y-120250000D03*
%TD*%
D12*
%TO.C,R7*%
X126675000Y-123500000D03*
X128325000Y-123500000D03*
%TD*%
D16*
%TO.C,R14*%
X117000000Y-108925000D03*
X117000000Y-110575000D03*
%TD*%
D12*
%TO.C,R9*%
X138175000Y-113750000D03*
X139825000Y-113750000D03*
%TD*%
D17*
%TO.C,D1*%
X117250000Y-117250000D03*
X117250000Y-113250000D03*
%TD*%
D12*
%TO.C,R25*%
X101137500Y-111250000D03*
X102787500Y-111250000D03*
%TD*%
D18*
%TO.C,D7*%
X116037500Y-105250000D03*
X114462500Y-105250000D03*
%TD*%
D12*
%TO.C,R22*%
X127175000Y-111500000D03*
X128825000Y-111500000D03*
%TD*%
D19*
%TO.C,C16*%
X136250000Y-113725000D03*
X136250000Y-115275000D03*
%TD*%
D16*
%TO.C,R2*%
X122300000Y-108975000D03*
X122300000Y-110625000D03*
%TD*%
D20*
%TO.C,U5*%
X109025000Y-111085000D03*
X109025000Y-112355000D03*
X109025000Y-113625000D03*
X109025000Y-114895000D03*
X113975000Y-114895000D03*
X113975000Y-113625000D03*
X113975000Y-112355000D03*
X113975000Y-111085000D03*
%TD*%
D11*
%TO.C,C4*%
X108000000Y-130550000D03*
X108000000Y-129000000D03*
%TD*%
D21*
%TO.C,C8*%
X116775000Y-120500000D03*
X115225000Y-120500000D03*
%TD*%
D11*
%TO.C,C5*%
X108000000Y-126775000D03*
X108000000Y-125225000D03*
%TD*%
D22*
%TO.C,R10*%
X107500000Y-134825000D03*
X107500000Y-133175000D03*
%TD*%
D23*
%TO.C,U7*%
X138984000Y-110049999D03*
X138984000Y-111950001D03*
X141016000Y-111000000D03*
%TD*%
D21*
%TO.C,C10*%
X137275000Y-109500000D03*
X135725000Y-109500000D03*
%TD*%
%TO.C,C12*%
X143525000Y-128000000D03*
X141975000Y-128000000D03*
%TD*%
D24*
%TO.C,U1*%
X123030000Y-113880000D03*
X123030000Y-115000000D03*
X123030000Y-116120000D03*
X124150000Y-113880000D03*
X124150000Y-115000000D03*
X124150000Y-116120000D03*
X125270000Y-113880000D03*
X125270000Y-115000000D03*
X125270000Y-116120000D03*
D25*
X121700000Y-113500000D03*
X121700000Y-114000000D03*
X121700000Y-114500000D03*
X121700000Y-115000000D03*
X121700000Y-115500000D03*
X121700000Y-116000000D03*
X121700000Y-116500000D03*
D26*
X122650000Y-117450000D03*
X123150000Y-117450000D03*
X123650000Y-117450000D03*
X124150000Y-117450000D03*
X124650000Y-117450000D03*
X125150000Y-117450000D03*
X125650000Y-117450000D03*
D25*
X126600000Y-116500000D03*
X126600000Y-116000000D03*
X126600000Y-115500000D03*
X126600000Y-115000000D03*
X126600000Y-114500000D03*
X126600000Y-114000000D03*
X126600000Y-113500000D03*
D26*
X125650000Y-112550000D03*
X125150000Y-112550000D03*
X124650000Y-112550000D03*
X124150000Y-112550000D03*
X123650000Y-112550000D03*
X123150000Y-112550000D03*
X122650000Y-112550000D03*
%TD*%
D27*
%TO.C,J4*%
X105866206Y-138249911D03*
X106750089Y-139133794D03*
D28*
X102295317Y-139204505D03*
X105795495Y-142704683D03*
%TD*%
D29*
%TO.C,Q1*%
X113950000Y-117062500D03*
X112050000Y-117062500D03*
X113000000Y-118937500D03*
%TD*%
D12*
%TO.C,R5*%
X115175000Y-122250000D03*
X116825000Y-122250000D03*
%TD*%
D16*
%TO.C,R4*%
X138500000Y-121175000D03*
X138500000Y-122825000D03*
%TD*%
D30*
%TO.C,D6*%
X143800000Y-130500000D03*
X141700000Y-130500000D03*
%TD*%
D22*
%TO.C,R15*%
X115250000Y-109075000D03*
X115250000Y-107425000D03*
%TD*%
D18*
%TO.C,D11*%
X105787500Y-111240000D03*
X104212500Y-111240000D03*
%TD*%
D31*
%TO.C,D5*%
X105000000Y-128950000D03*
X105000000Y-131050000D03*
%TD*%
D16*
%TO.C,R17*%
X142000000Y-115175000D03*
X142000000Y-116825000D03*
%TD*%
D32*
%TO.C,U4*%
X121250000Y-123700000D03*
X121750000Y-123700000D03*
X122250000Y-123700000D03*
X122750000Y-123700000D03*
X123250000Y-123700000D03*
X123750000Y-123700000D03*
D33*
X124450000Y-123000000D03*
X124450000Y-122500000D03*
X124450000Y-122000000D03*
X124450000Y-121500000D03*
X124450000Y-121000000D03*
X124450000Y-120500000D03*
D32*
X123750000Y-119800000D03*
X123250000Y-119800000D03*
X122750000Y-119800000D03*
X122250000Y-119800000D03*
X121750000Y-119800000D03*
X121250000Y-119800000D03*
D33*
X120550000Y-120500000D03*
X120550000Y-121000000D03*
X120550000Y-121500000D03*
X120550000Y-122000000D03*
X120550000Y-122500000D03*
X120550000Y-123000000D03*
%TD*%
D34*
%TO.C,J1*%
X125750000Y-107045000D03*
X124950000Y-107045000D03*
D35*
X123750000Y-107045000D03*
X122750000Y-107045000D03*
X122250000Y-107045000D03*
X121250000Y-107045000D03*
D34*
X120050000Y-107045000D03*
X119250000Y-107045000D03*
X119250000Y-107045000D03*
X120050000Y-107045000D03*
D35*
X120750000Y-107045000D03*
X121750000Y-107045000D03*
X123250000Y-107045000D03*
X124250000Y-107045000D03*
D34*
X124950000Y-107045000D03*
X125750000Y-107045000D03*
%TD*%
D36*
%TO.C,U2*%
X139137500Y-118950000D03*
X139137500Y-118000000D03*
X139137500Y-117050000D03*
X136862500Y-117050000D03*
X136862500Y-118950000D03*
%TD*%
D37*
%TO.C,R16*%
X102650000Y-109000000D03*
X101000000Y-109000000D03*
%TD*%
D38*
%TO.C,J5*%
X138249911Y-139133794D03*
X139133794Y-138249911D03*
D39*
X139204505Y-142704683D03*
X142704683Y-139204505D03*
%TD*%
D40*
%TO.C,J6*%
X105350000Y-121875000D03*
X105350000Y-123125000D03*
D41*
X102150000Y-120025000D03*
X102150000Y-124975000D03*
%TD*%
D11*
%TO.C,C13*%
X128000000Y-115775000D03*
X128000000Y-114225000D03*
%TD*%
D31*
%TO.C,D3*%
X112000000Y-106950000D03*
X112000000Y-109050000D03*
%TD*%
D12*
%TO.C,R21*%
X127425000Y-109250000D03*
X129075000Y-109250000D03*
%TD*%
D21*
%TO.C,C3*%
X134775000Y-144000000D03*
X133225000Y-144000000D03*
%TD*%
D12*
%TO.C,R19*%
X133175000Y-118000000D03*
X134825000Y-118000000D03*
%TD*%
D22*
%TO.C,R20*%
X129600000Y-115825000D03*
X129600000Y-114175000D03*
%TD*%
D19*
%TO.C,C11*%
X102860000Y-129132500D03*
X102860000Y-130682500D03*
%TD*%
D22*
%TO.C,R12*%
X133750000Y-142325000D03*
X133750000Y-140675000D03*
%TD*%
D13*
%TO.C,C6*%
X129725000Y-122000000D03*
X131275000Y-122000000D03*
%TD*%
D16*
%TO.C,R3*%
X120550000Y-108925000D03*
X120550000Y-110575000D03*
%TD*%
D42*
%TO.C,J2*%
X106750089Y-105866206D03*
X105866206Y-106750089D03*
D43*
X105795495Y-102295317D03*
X102295317Y-105795495D03*
%TD*%
D30*
%TO.C,D4*%
X137350000Y-111400000D03*
X135250000Y-111400000D03*
%TD*%
D11*
%TO.C,C15*%
X131000000Y-110775000D03*
X131000000Y-109225000D03*
%TD*%
D12*
%TO.C,R23*%
X101137500Y-116000000D03*
X102787500Y-116000000D03*
%TD*%
D16*
%TO.C,R1*%
X124300000Y-108975000D03*
X124300000Y-110625000D03*
%TD*%
D12*
%TO.C,R13*%
X133175000Y-139250000D03*
X134825000Y-139250000D03*
%TD*%
D18*
%TO.C,D10*%
X105787500Y-113650000D03*
X104212500Y-113650000D03*
%TD*%
D36*
%TO.C,Q2*%
X131637500Y-105450000D03*
X131637500Y-104500000D03*
X131637500Y-103550000D03*
X129362500Y-103550000D03*
X129362500Y-104500000D03*
X129362500Y-105450000D03*
%TD*%
D23*
%TO.C,U8*%
X105016000Y-134950001D03*
X105016000Y-133049999D03*
X102984000Y-134000000D03*
%TD*%
D37*
%TO.C,R18*%
X131325000Y-119500000D03*
X129675000Y-119500000D03*
%TD*%
D23*
%TO.C,U9*%
X142266000Y-134950001D03*
X142266000Y-133049999D03*
X140234000Y-134000000D03*
%TD*%
D19*
%TO.C,C9*%
X110000000Y-107225000D03*
X110000000Y-108775000D03*
%TD*%
D12*
%TO.C,R8*%
X114175000Y-101250000D03*
X115825000Y-101250000D03*
%TD*%
D18*
%TO.C,D9*%
X105762500Y-116000000D03*
X104187500Y-116000000D03*
%TD*%
%TO.C,D8*%
X116075000Y-103500000D03*
X114500000Y-103500000D03*
%TD*%
D44*
%TO.C,U3*%
X131250000Y-143450000D03*
X131250000Y-142180000D03*
X131250000Y-140910000D03*
X131250000Y-139640000D03*
X131250000Y-138370000D03*
X131250000Y-137100000D03*
X131250000Y-135830000D03*
X131250000Y-134560000D03*
X131250000Y-133290000D03*
X131250000Y-132020000D03*
X131250000Y-130750000D03*
X131250000Y-129480000D03*
X131250000Y-128210000D03*
X131250000Y-126940000D03*
D45*
X128210000Y-125690000D03*
X126940000Y-125690000D03*
X125670000Y-125690000D03*
X124400000Y-125690000D03*
X123130000Y-125690000D03*
X121860000Y-125690000D03*
X120590000Y-125690000D03*
X119320000Y-125690000D03*
X118050000Y-125690000D03*
X116780000Y-125690000D03*
D44*
X113750000Y-126940000D03*
X113750000Y-128210000D03*
X113750000Y-129480000D03*
X113750000Y-130750000D03*
X113750000Y-132020000D03*
X113750000Y-133290000D03*
X113750000Y-134560000D03*
X113750000Y-135830000D03*
X113750000Y-137100000D03*
X113750000Y-138370000D03*
X113750000Y-139640000D03*
X113750000Y-140910000D03*
X113750000Y-142180000D03*
X113750000Y-143450000D03*
D46*
X124705000Y-137635000D03*
X124705000Y-136110000D03*
X124705000Y-134585000D03*
X123180000Y-137635000D03*
X123180000Y-136110000D03*
X123180000Y-134585000D03*
X121655000Y-137635000D03*
X121655000Y-136110000D03*
X121655000Y-134585000D03*
%TD*%
D12*
%TO.C,R6*%
X115175000Y-123900000D03*
X116825000Y-123900000D03*
%TD*%
D11*
%TO.C,C14*%
X133000000Y-112275000D03*
X133000000Y-110725000D03*
%TD*%
%TO.C,C1*%
X109500000Y-119275000D03*
X109500000Y-117725000D03*
%TD*%
D47*
%TO.C,D2*%
X138500000Y-126287500D03*
X138500000Y-124712500D03*
%TD*%
D22*
%TO.C,R11*%
X144000000Y-134575000D03*
X144000000Y-132925000D03*
%TD*%
D48*
%TO.C,J3*%
X139133794Y-106750089D03*
X138249911Y-105866206D03*
D49*
X142704683Y-105795495D03*
X139204505Y-102295317D03*
%TD*%
D50*
%TO.C,U6*%
X110599998Y-104000000D03*
X112500000Y-104000000D03*
X111549999Y-101968000D03*
%TD*%
M02*
