%TF.GenerationSoftware,KiCad,Pcbnew,9.0.6*%
%TF.CreationDate,2026-01-08T21:46:16-05:00*%
%TF.ProjectId,espdroneea,65737064-726f-46e6-9565-612e6b696361,rev?*%
%TF.SameCoordinates,Original*%
%TF.FileFunction,Legend,Top*%
%TF.FilePolarity,Positive*%
%FSLAX46Y46*%
G04 Gerber Fmt 4.6, Leading zero omitted, Abs format (unit mm)*
G04 Created by KiCad (PCBNEW 9.0.6) date 2026-01-08 21:46:16*
%MOMM*%
%LPD*%
G01*
G04 APERTURE LIST*
%ADD10C,0.150000*%
%ADD11C,0.120000*%
%ADD12C,0.127000*%
%ADD13C,0.200000*%
%ADD14C,0.152400*%
G04 APERTURE END LIST*
D10*
X126359580Y-120666666D02*
X126407200Y-120714285D01*
X126407200Y-120714285D02*
X126454819Y-120857142D01*
X126454819Y-120857142D02*
X126454819Y-120952380D01*
X126454819Y-120952380D02*
X126407200Y-121095237D01*
X126407200Y-121095237D02*
X126311961Y-121190475D01*
X126311961Y-121190475D02*
X126216723Y-121238094D01*
X126216723Y-121238094D02*
X126026247Y-121285713D01*
X126026247Y-121285713D02*
X125883390Y-121285713D01*
X125883390Y-121285713D02*
X125692914Y-121238094D01*
X125692914Y-121238094D02*
X125597676Y-121190475D01*
X125597676Y-121190475D02*
X125502438Y-121095237D01*
X125502438Y-121095237D02*
X125454819Y-120952380D01*
X125454819Y-120952380D02*
X125454819Y-120857142D01*
X125454819Y-120857142D02*
X125502438Y-120714285D01*
X125502438Y-120714285D02*
X125550057Y-120666666D01*
X125454819Y-120333332D02*
X125454819Y-119666666D01*
X125454819Y-119666666D02*
X126454819Y-120095237D01*
X101319642Y-112784819D02*
X100986309Y-112308628D01*
X100748214Y-112784819D02*
X100748214Y-111784819D01*
X100748214Y-111784819D02*
X101129166Y-111784819D01*
X101129166Y-111784819D02*
X101224404Y-111832438D01*
X101224404Y-111832438D02*
X101272023Y-111880057D01*
X101272023Y-111880057D02*
X101319642Y-111975295D01*
X101319642Y-111975295D02*
X101319642Y-112118152D01*
X101319642Y-112118152D02*
X101272023Y-112213390D01*
X101272023Y-112213390D02*
X101224404Y-112261009D01*
X101224404Y-112261009D02*
X101129166Y-112308628D01*
X101129166Y-112308628D02*
X100748214Y-112308628D01*
X101700595Y-111880057D02*
X101748214Y-111832438D01*
X101748214Y-111832438D02*
X101843452Y-111784819D01*
X101843452Y-111784819D02*
X102081547Y-111784819D01*
X102081547Y-111784819D02*
X102176785Y-111832438D01*
X102176785Y-111832438D02*
X102224404Y-111880057D01*
X102224404Y-111880057D02*
X102272023Y-111975295D01*
X102272023Y-111975295D02*
X102272023Y-112070533D01*
X102272023Y-112070533D02*
X102224404Y-112213390D01*
X102224404Y-112213390D02*
X101652976Y-112784819D01*
X101652976Y-112784819D02*
X102272023Y-112784819D01*
X103129166Y-112118152D02*
X103129166Y-112784819D01*
X102891071Y-111737200D02*
X102652976Y-112451485D01*
X102652976Y-112451485D02*
X103272023Y-112451485D01*
X133583333Y-116359580D02*
X133535714Y-116407200D01*
X133535714Y-116407200D02*
X133392857Y-116454819D01*
X133392857Y-116454819D02*
X133297619Y-116454819D01*
X133297619Y-116454819D02*
X133154762Y-116407200D01*
X133154762Y-116407200D02*
X133059524Y-116311961D01*
X133059524Y-116311961D02*
X133011905Y-116216723D01*
X133011905Y-116216723D02*
X132964286Y-116026247D01*
X132964286Y-116026247D02*
X132964286Y-115883390D01*
X132964286Y-115883390D02*
X133011905Y-115692914D01*
X133011905Y-115692914D02*
X133059524Y-115597676D01*
X133059524Y-115597676D02*
X133154762Y-115502438D01*
X133154762Y-115502438D02*
X133297619Y-115454819D01*
X133297619Y-115454819D02*
X133392857Y-115454819D01*
X133392857Y-115454819D02*
X133535714Y-115502438D01*
X133535714Y-115502438D02*
X133583333Y-115550057D01*
X133964286Y-115550057D02*
X134011905Y-115502438D01*
X134011905Y-115502438D02*
X134107143Y-115454819D01*
X134107143Y-115454819D02*
X134345238Y-115454819D01*
X134345238Y-115454819D02*
X134440476Y-115502438D01*
X134440476Y-115502438D02*
X134488095Y-115550057D01*
X134488095Y-115550057D02*
X134535714Y-115645295D01*
X134535714Y-115645295D02*
X134535714Y-115740533D01*
X134535714Y-115740533D02*
X134488095Y-115883390D01*
X134488095Y-115883390D02*
X133916667Y-116454819D01*
X133916667Y-116454819D02*
X134535714Y-116454819D01*
X139777200Y-123833332D02*
X139824819Y-123690475D01*
X139824819Y-123690475D02*
X139824819Y-123452380D01*
X139824819Y-123452380D02*
X139777200Y-123357142D01*
X139777200Y-123357142D02*
X139729580Y-123309523D01*
X139729580Y-123309523D02*
X139634342Y-123261904D01*
X139634342Y-123261904D02*
X139539104Y-123261904D01*
X139539104Y-123261904D02*
X139443866Y-123309523D01*
X139443866Y-123309523D02*
X139396247Y-123357142D01*
X139396247Y-123357142D02*
X139348628Y-123452380D01*
X139348628Y-123452380D02*
X139301009Y-123642856D01*
X139301009Y-123642856D02*
X139253390Y-123738094D01*
X139253390Y-123738094D02*
X139205771Y-123785713D01*
X139205771Y-123785713D02*
X139110533Y-123833332D01*
X139110533Y-123833332D02*
X139015295Y-123833332D01*
X139015295Y-123833332D02*
X138920057Y-123785713D01*
X138920057Y-123785713D02*
X138872438Y-123738094D01*
X138872438Y-123738094D02*
X138824819Y-123642856D01*
X138824819Y-123642856D02*
X138824819Y-123404761D01*
X138824819Y-123404761D02*
X138872438Y-123261904D01*
X138824819Y-122928570D02*
X139824819Y-122690475D01*
X139824819Y-122690475D02*
X139110533Y-122499999D01*
X139110533Y-122499999D02*
X139824819Y-122309523D01*
X139824819Y-122309523D02*
X138824819Y-122071428D01*
X139824819Y-121166666D02*
X139824819Y-121738094D01*
X139824819Y-121452380D02*
X138824819Y-121452380D01*
X138824819Y-121452380D02*
X138967676Y-121547618D01*
X138967676Y-121547618D02*
X139062914Y-121642856D01*
X139062914Y-121642856D02*
X139110533Y-121738094D01*
X127333333Y-122524819D02*
X127000000Y-122048628D01*
X126761905Y-122524819D02*
X126761905Y-121524819D01*
X126761905Y-121524819D02*
X127142857Y-121524819D01*
X127142857Y-121524819D02*
X127238095Y-121572438D01*
X127238095Y-121572438D02*
X127285714Y-121620057D01*
X127285714Y-121620057D02*
X127333333Y-121715295D01*
X127333333Y-121715295D02*
X127333333Y-121858152D01*
X127333333Y-121858152D02*
X127285714Y-121953390D01*
X127285714Y-121953390D02*
X127238095Y-122001009D01*
X127238095Y-122001009D02*
X127142857Y-122048628D01*
X127142857Y-122048628D02*
X126761905Y-122048628D01*
X127666667Y-121524819D02*
X128333333Y-121524819D01*
X128333333Y-121524819D02*
X127904762Y-122524819D01*
X118704819Y-110892857D02*
X118228628Y-111226190D01*
X118704819Y-111464285D02*
X117704819Y-111464285D01*
X117704819Y-111464285D02*
X117704819Y-111083333D01*
X117704819Y-111083333D02*
X117752438Y-110988095D01*
X117752438Y-110988095D02*
X117800057Y-110940476D01*
X117800057Y-110940476D02*
X117895295Y-110892857D01*
X117895295Y-110892857D02*
X118038152Y-110892857D01*
X118038152Y-110892857D02*
X118133390Y-110940476D01*
X118133390Y-110940476D02*
X118181009Y-110988095D01*
X118181009Y-110988095D02*
X118228628Y-111083333D01*
X118228628Y-111083333D02*
X118228628Y-111464285D01*
X118704819Y-109940476D02*
X118704819Y-110511904D01*
X118704819Y-110226190D02*
X117704819Y-110226190D01*
X117704819Y-110226190D02*
X117847676Y-110321428D01*
X117847676Y-110321428D02*
X117942914Y-110416666D01*
X117942914Y-110416666D02*
X117990533Y-110511904D01*
X118038152Y-109083333D02*
X118704819Y-109083333D01*
X117657200Y-109321428D02*
X118371485Y-109559523D01*
X118371485Y-109559523D02*
X118371485Y-108940476D01*
X141333333Y-113954819D02*
X141000000Y-113478628D01*
X140761905Y-113954819D02*
X140761905Y-112954819D01*
X140761905Y-112954819D02*
X141142857Y-112954819D01*
X141142857Y-112954819D02*
X141238095Y-113002438D01*
X141238095Y-113002438D02*
X141285714Y-113050057D01*
X141285714Y-113050057D02*
X141333333Y-113145295D01*
X141333333Y-113145295D02*
X141333333Y-113288152D01*
X141333333Y-113288152D02*
X141285714Y-113383390D01*
X141285714Y-113383390D02*
X141238095Y-113431009D01*
X141238095Y-113431009D02*
X141142857Y-113478628D01*
X141142857Y-113478628D02*
X140761905Y-113478628D01*
X141809524Y-113954819D02*
X142000000Y-113954819D01*
X142000000Y-113954819D02*
X142095238Y-113907200D01*
X142095238Y-113907200D02*
X142142857Y-113859580D01*
X142142857Y-113859580D02*
X142238095Y-113716723D01*
X142238095Y-113716723D02*
X142285714Y-113526247D01*
X142285714Y-113526247D02*
X142285714Y-113145295D01*
X142285714Y-113145295D02*
X142238095Y-113050057D01*
X142238095Y-113050057D02*
X142190476Y-113002438D01*
X142190476Y-113002438D02*
X142095238Y-112954819D01*
X142095238Y-112954819D02*
X141904762Y-112954819D01*
X141904762Y-112954819D02*
X141809524Y-113002438D01*
X141809524Y-113002438D02*
X141761905Y-113050057D01*
X141761905Y-113050057D02*
X141714286Y-113145295D01*
X141714286Y-113145295D02*
X141714286Y-113383390D01*
X141714286Y-113383390D02*
X141761905Y-113478628D01*
X141761905Y-113478628D02*
X141809524Y-113526247D01*
X141809524Y-113526247D02*
X141904762Y-113573866D01*
X141904762Y-113573866D02*
X142095238Y-113573866D01*
X142095238Y-113573866D02*
X142190476Y-113526247D01*
X142190476Y-113526247D02*
X142238095Y-113478628D01*
X142238095Y-113478628D02*
X142285714Y-113383390D01*
X118511905Y-107254819D02*
X118511905Y-106254819D01*
X118511905Y-106254819D02*
X118750000Y-106254819D01*
X118750000Y-106254819D02*
X118892857Y-106302438D01*
X118892857Y-106302438D02*
X118988095Y-106397676D01*
X118988095Y-106397676D02*
X119035714Y-106492914D01*
X119035714Y-106492914D02*
X119083333Y-106683390D01*
X119083333Y-106683390D02*
X119083333Y-106826247D01*
X119083333Y-106826247D02*
X119035714Y-107016723D01*
X119035714Y-107016723D02*
X118988095Y-107111961D01*
X118988095Y-107111961D02*
X118892857Y-107207200D01*
X118892857Y-107207200D02*
X118750000Y-107254819D01*
X118750000Y-107254819D02*
X118511905Y-107254819D01*
X120035714Y-107254819D02*
X119464286Y-107254819D01*
X119750000Y-107254819D02*
X119750000Y-106254819D01*
X119750000Y-106254819D02*
X119654762Y-106397676D01*
X119654762Y-106397676D02*
X119559524Y-106492914D01*
X119559524Y-106492914D02*
X119464286Y-106540533D01*
X100357142Y-107954819D02*
X100023809Y-107478628D01*
X99785714Y-107954819D02*
X99785714Y-106954819D01*
X99785714Y-106954819D02*
X100166666Y-106954819D01*
X100166666Y-106954819D02*
X100261904Y-107002438D01*
X100261904Y-107002438D02*
X100309523Y-107050057D01*
X100309523Y-107050057D02*
X100357142Y-107145295D01*
X100357142Y-107145295D02*
X100357142Y-107288152D01*
X100357142Y-107288152D02*
X100309523Y-107383390D01*
X100309523Y-107383390D02*
X100261904Y-107431009D01*
X100261904Y-107431009D02*
X100166666Y-107478628D01*
X100166666Y-107478628D02*
X99785714Y-107478628D01*
X100738095Y-107050057D02*
X100785714Y-107002438D01*
X100785714Y-107002438D02*
X100880952Y-106954819D01*
X100880952Y-106954819D02*
X101119047Y-106954819D01*
X101119047Y-106954819D02*
X101214285Y-107002438D01*
X101214285Y-107002438D02*
X101261904Y-107050057D01*
X101261904Y-107050057D02*
X101309523Y-107145295D01*
X101309523Y-107145295D02*
X101309523Y-107240533D01*
X101309523Y-107240533D02*
X101261904Y-107383390D01*
X101261904Y-107383390D02*
X100690476Y-107954819D01*
X100690476Y-107954819D02*
X101309523Y-107954819D01*
X102214285Y-106954819D02*
X101738095Y-106954819D01*
X101738095Y-106954819D02*
X101690476Y-107431009D01*
X101690476Y-107431009D02*
X101738095Y-107383390D01*
X101738095Y-107383390D02*
X101833333Y-107335771D01*
X101833333Y-107335771D02*
X102071428Y-107335771D01*
X102071428Y-107335771D02*
X102166666Y-107383390D01*
X102166666Y-107383390D02*
X102214285Y-107431009D01*
X102214285Y-107431009D02*
X102261904Y-107526247D01*
X102261904Y-107526247D02*
X102261904Y-107764342D01*
X102261904Y-107764342D02*
X102214285Y-107859580D01*
X102214285Y-107859580D02*
X102166666Y-107907200D01*
X102166666Y-107907200D02*
X102071428Y-107954819D01*
X102071428Y-107954819D02*
X101833333Y-107954819D01*
X101833333Y-107954819D02*
X101738095Y-107907200D01*
X101738095Y-107907200D02*
X101690476Y-107859580D01*
X114511905Y-107134819D02*
X114511905Y-106134819D01*
X114511905Y-106134819D02*
X114750000Y-106134819D01*
X114750000Y-106134819D02*
X114892857Y-106182438D01*
X114892857Y-106182438D02*
X114988095Y-106277676D01*
X114988095Y-106277676D02*
X115035714Y-106372914D01*
X115035714Y-106372914D02*
X115083333Y-106563390D01*
X115083333Y-106563390D02*
X115083333Y-106706247D01*
X115083333Y-106706247D02*
X115035714Y-106896723D01*
X115035714Y-106896723D02*
X114988095Y-106991961D01*
X114988095Y-106991961D02*
X114892857Y-107087200D01*
X114892857Y-107087200D02*
X114750000Y-107134819D01*
X114750000Y-107134819D02*
X114511905Y-107134819D01*
X115416667Y-106134819D02*
X116083333Y-106134819D01*
X116083333Y-106134819D02*
X115654762Y-107134819D01*
X127357142Y-110524819D02*
X127023809Y-110048628D01*
X126785714Y-110524819D02*
X126785714Y-109524819D01*
X126785714Y-109524819D02*
X127166666Y-109524819D01*
X127166666Y-109524819D02*
X127261904Y-109572438D01*
X127261904Y-109572438D02*
X127309523Y-109620057D01*
X127309523Y-109620057D02*
X127357142Y-109715295D01*
X127357142Y-109715295D02*
X127357142Y-109858152D01*
X127357142Y-109858152D02*
X127309523Y-109953390D01*
X127309523Y-109953390D02*
X127261904Y-110001009D01*
X127261904Y-110001009D02*
X127166666Y-110048628D01*
X127166666Y-110048628D02*
X126785714Y-110048628D01*
X127738095Y-109620057D02*
X127785714Y-109572438D01*
X127785714Y-109572438D02*
X127880952Y-109524819D01*
X127880952Y-109524819D02*
X128119047Y-109524819D01*
X128119047Y-109524819D02*
X128214285Y-109572438D01*
X128214285Y-109572438D02*
X128261904Y-109620057D01*
X128261904Y-109620057D02*
X128309523Y-109715295D01*
X128309523Y-109715295D02*
X128309523Y-109810533D01*
X128309523Y-109810533D02*
X128261904Y-109953390D01*
X128261904Y-109953390D02*
X127690476Y-110524819D01*
X127690476Y-110524819D02*
X128309523Y-110524819D01*
X128690476Y-109620057D02*
X128738095Y-109572438D01*
X128738095Y-109572438D02*
X128833333Y-109524819D01*
X128833333Y-109524819D02*
X129071428Y-109524819D01*
X129071428Y-109524819D02*
X129166666Y-109572438D01*
X129166666Y-109572438D02*
X129214285Y-109620057D01*
X129214285Y-109620057D02*
X129261904Y-109715295D01*
X129261904Y-109715295D02*
X129261904Y-109810533D01*
X129261904Y-109810533D02*
X129214285Y-109953390D01*
X129214285Y-109953390D02*
X128642857Y-110524819D01*
X128642857Y-110524819D02*
X129261904Y-110524819D01*
X137607142Y-115609580D02*
X137559523Y-115657200D01*
X137559523Y-115657200D02*
X137416666Y-115704819D01*
X137416666Y-115704819D02*
X137321428Y-115704819D01*
X137321428Y-115704819D02*
X137178571Y-115657200D01*
X137178571Y-115657200D02*
X137083333Y-115561961D01*
X137083333Y-115561961D02*
X137035714Y-115466723D01*
X137035714Y-115466723D02*
X136988095Y-115276247D01*
X136988095Y-115276247D02*
X136988095Y-115133390D01*
X136988095Y-115133390D02*
X137035714Y-114942914D01*
X137035714Y-114942914D02*
X137083333Y-114847676D01*
X137083333Y-114847676D02*
X137178571Y-114752438D01*
X137178571Y-114752438D02*
X137321428Y-114704819D01*
X137321428Y-114704819D02*
X137416666Y-114704819D01*
X137416666Y-114704819D02*
X137559523Y-114752438D01*
X137559523Y-114752438D02*
X137607142Y-114800057D01*
X138559523Y-115704819D02*
X137988095Y-115704819D01*
X138273809Y-115704819D02*
X138273809Y-114704819D01*
X138273809Y-114704819D02*
X138178571Y-114847676D01*
X138178571Y-114847676D02*
X138083333Y-114942914D01*
X138083333Y-114942914D02*
X137988095Y-114990533D01*
X139416666Y-114704819D02*
X139226190Y-114704819D01*
X139226190Y-114704819D02*
X139130952Y-114752438D01*
X139130952Y-114752438D02*
X139083333Y-114800057D01*
X139083333Y-114800057D02*
X138988095Y-114942914D01*
X138988095Y-114942914D02*
X138940476Y-115133390D01*
X138940476Y-115133390D02*
X138940476Y-115514342D01*
X138940476Y-115514342D02*
X138988095Y-115609580D01*
X138988095Y-115609580D02*
X139035714Y-115657200D01*
X139035714Y-115657200D02*
X139130952Y-115704819D01*
X139130952Y-115704819D02*
X139321428Y-115704819D01*
X139321428Y-115704819D02*
X139416666Y-115657200D01*
X139416666Y-115657200D02*
X139464285Y-115609580D01*
X139464285Y-115609580D02*
X139511904Y-115514342D01*
X139511904Y-115514342D02*
X139511904Y-115276247D01*
X139511904Y-115276247D02*
X139464285Y-115181009D01*
X139464285Y-115181009D02*
X139416666Y-115133390D01*
X139416666Y-115133390D02*
X139321428Y-115085771D01*
X139321428Y-115085771D02*
X139130952Y-115085771D01*
X139130952Y-115085771D02*
X139035714Y-115133390D01*
X139035714Y-115133390D02*
X138988095Y-115181009D01*
X138988095Y-115181009D02*
X138940476Y-115276247D01*
X122383333Y-108504819D02*
X122050000Y-108028628D01*
X121811905Y-108504819D02*
X121811905Y-107504819D01*
X121811905Y-107504819D02*
X122192857Y-107504819D01*
X122192857Y-107504819D02*
X122288095Y-107552438D01*
X122288095Y-107552438D02*
X122335714Y-107600057D01*
X122335714Y-107600057D02*
X122383333Y-107695295D01*
X122383333Y-107695295D02*
X122383333Y-107838152D01*
X122383333Y-107838152D02*
X122335714Y-107933390D01*
X122335714Y-107933390D02*
X122288095Y-107981009D01*
X122288095Y-107981009D02*
X122192857Y-108028628D01*
X122192857Y-108028628D02*
X121811905Y-108028628D01*
X122764286Y-107600057D02*
X122811905Y-107552438D01*
X122811905Y-107552438D02*
X122907143Y-107504819D01*
X122907143Y-107504819D02*
X123145238Y-107504819D01*
X123145238Y-107504819D02*
X123240476Y-107552438D01*
X123240476Y-107552438D02*
X123288095Y-107600057D01*
X123288095Y-107600057D02*
X123335714Y-107695295D01*
X123335714Y-107695295D02*
X123335714Y-107790533D01*
X123335714Y-107790533D02*
X123288095Y-107933390D01*
X123288095Y-107933390D02*
X122716667Y-108504819D01*
X122716667Y-108504819D02*
X123335714Y-108504819D01*
X109943095Y-109082819D02*
X109943095Y-109892342D01*
X109943095Y-109892342D02*
X109990714Y-109987580D01*
X109990714Y-109987580D02*
X110038333Y-110035200D01*
X110038333Y-110035200D02*
X110133571Y-110082819D01*
X110133571Y-110082819D02*
X110324047Y-110082819D01*
X110324047Y-110082819D02*
X110419285Y-110035200D01*
X110419285Y-110035200D02*
X110466904Y-109987580D01*
X110466904Y-109987580D02*
X110514523Y-109892342D01*
X110514523Y-109892342D02*
X110514523Y-109082819D01*
X111466904Y-109082819D02*
X110990714Y-109082819D01*
X110990714Y-109082819D02*
X110943095Y-109559009D01*
X110943095Y-109559009D02*
X110990714Y-109511390D01*
X110990714Y-109511390D02*
X111085952Y-109463771D01*
X111085952Y-109463771D02*
X111324047Y-109463771D01*
X111324047Y-109463771D02*
X111419285Y-109511390D01*
X111419285Y-109511390D02*
X111466904Y-109559009D01*
X111466904Y-109559009D02*
X111514523Y-109654247D01*
X111514523Y-109654247D02*
X111514523Y-109892342D01*
X111514523Y-109892342D02*
X111466904Y-109987580D01*
X111466904Y-109987580D02*
X111419285Y-110035200D01*
X111419285Y-110035200D02*
X111324047Y-110082819D01*
X111324047Y-110082819D02*
X111085952Y-110082819D01*
X111085952Y-110082819D02*
X110990714Y-110035200D01*
X110990714Y-110035200D02*
X110943095Y-109987580D01*
X108359580Y-127441666D02*
X108407200Y-127489285D01*
X108407200Y-127489285D02*
X108454819Y-127632142D01*
X108454819Y-127632142D02*
X108454819Y-127727380D01*
X108454819Y-127727380D02*
X108407200Y-127870237D01*
X108407200Y-127870237D02*
X108311961Y-127965475D01*
X108311961Y-127965475D02*
X108216723Y-128013094D01*
X108216723Y-128013094D02*
X108026247Y-128060713D01*
X108026247Y-128060713D02*
X107883390Y-128060713D01*
X107883390Y-128060713D02*
X107692914Y-128013094D01*
X107692914Y-128013094D02*
X107597676Y-127965475D01*
X107597676Y-127965475D02*
X107502438Y-127870237D01*
X107502438Y-127870237D02*
X107454819Y-127727380D01*
X107454819Y-127727380D02*
X107454819Y-127632142D01*
X107454819Y-127632142D02*
X107502438Y-127489285D01*
X107502438Y-127489285D02*
X107550057Y-127441666D01*
X107788152Y-126584523D02*
X108454819Y-126584523D01*
X107407200Y-126822618D02*
X108121485Y-127060713D01*
X108121485Y-127060713D02*
X108121485Y-126441666D01*
X113583333Y-121109580D02*
X113535714Y-121157200D01*
X113535714Y-121157200D02*
X113392857Y-121204819D01*
X113392857Y-121204819D02*
X113297619Y-121204819D01*
X113297619Y-121204819D02*
X113154762Y-121157200D01*
X113154762Y-121157200D02*
X113059524Y-121061961D01*
X113059524Y-121061961D02*
X113011905Y-120966723D01*
X113011905Y-120966723D02*
X112964286Y-120776247D01*
X112964286Y-120776247D02*
X112964286Y-120633390D01*
X112964286Y-120633390D02*
X113011905Y-120442914D01*
X113011905Y-120442914D02*
X113059524Y-120347676D01*
X113059524Y-120347676D02*
X113154762Y-120252438D01*
X113154762Y-120252438D02*
X113297619Y-120204819D01*
X113297619Y-120204819D02*
X113392857Y-120204819D01*
X113392857Y-120204819D02*
X113535714Y-120252438D01*
X113535714Y-120252438D02*
X113583333Y-120300057D01*
X114154762Y-120633390D02*
X114059524Y-120585771D01*
X114059524Y-120585771D02*
X114011905Y-120538152D01*
X114011905Y-120538152D02*
X113964286Y-120442914D01*
X113964286Y-120442914D02*
X113964286Y-120395295D01*
X113964286Y-120395295D02*
X114011905Y-120300057D01*
X114011905Y-120300057D02*
X114059524Y-120252438D01*
X114059524Y-120252438D02*
X114154762Y-120204819D01*
X114154762Y-120204819D02*
X114345238Y-120204819D01*
X114345238Y-120204819D02*
X114440476Y-120252438D01*
X114440476Y-120252438D02*
X114488095Y-120300057D01*
X114488095Y-120300057D02*
X114535714Y-120395295D01*
X114535714Y-120395295D02*
X114535714Y-120442914D01*
X114535714Y-120442914D02*
X114488095Y-120538152D01*
X114488095Y-120538152D02*
X114440476Y-120585771D01*
X114440476Y-120585771D02*
X114345238Y-120633390D01*
X114345238Y-120633390D02*
X114154762Y-120633390D01*
X114154762Y-120633390D02*
X114059524Y-120681009D01*
X114059524Y-120681009D02*
X114011905Y-120728628D01*
X114011905Y-120728628D02*
X113964286Y-120823866D01*
X113964286Y-120823866D02*
X113964286Y-121014342D01*
X113964286Y-121014342D02*
X114011905Y-121109580D01*
X114011905Y-121109580D02*
X114059524Y-121157200D01*
X114059524Y-121157200D02*
X114154762Y-121204819D01*
X114154762Y-121204819D02*
X114345238Y-121204819D01*
X114345238Y-121204819D02*
X114440476Y-121157200D01*
X114440476Y-121157200D02*
X114488095Y-121109580D01*
X114488095Y-121109580D02*
X114535714Y-121014342D01*
X114535714Y-121014342D02*
X114535714Y-120823866D01*
X114535714Y-120823866D02*
X114488095Y-120728628D01*
X114488095Y-120728628D02*
X114440476Y-120681009D01*
X114440476Y-120681009D02*
X114345238Y-120633390D01*
X108359580Y-123666666D02*
X108407200Y-123714285D01*
X108407200Y-123714285D02*
X108454819Y-123857142D01*
X108454819Y-123857142D02*
X108454819Y-123952380D01*
X108454819Y-123952380D02*
X108407200Y-124095237D01*
X108407200Y-124095237D02*
X108311961Y-124190475D01*
X108311961Y-124190475D02*
X108216723Y-124238094D01*
X108216723Y-124238094D02*
X108026247Y-124285713D01*
X108026247Y-124285713D02*
X107883390Y-124285713D01*
X107883390Y-124285713D02*
X107692914Y-124238094D01*
X107692914Y-124238094D02*
X107597676Y-124190475D01*
X107597676Y-124190475D02*
X107502438Y-124095237D01*
X107502438Y-124095237D02*
X107454819Y-123952380D01*
X107454819Y-123952380D02*
X107454819Y-123857142D01*
X107454819Y-123857142D02*
X107502438Y-123714285D01*
X107502438Y-123714285D02*
X107550057Y-123666666D01*
X107454819Y-122761904D02*
X107454819Y-123238094D01*
X107454819Y-123238094D02*
X107931009Y-123285713D01*
X107931009Y-123285713D02*
X107883390Y-123238094D01*
X107883390Y-123238094D02*
X107835771Y-123142856D01*
X107835771Y-123142856D02*
X107835771Y-122904761D01*
X107835771Y-122904761D02*
X107883390Y-122809523D01*
X107883390Y-122809523D02*
X107931009Y-122761904D01*
X107931009Y-122761904D02*
X108026247Y-122714285D01*
X108026247Y-122714285D02*
X108264342Y-122714285D01*
X108264342Y-122714285D02*
X108359580Y-122761904D01*
X108359580Y-122761904D02*
X108407200Y-122809523D01*
X108407200Y-122809523D02*
X108454819Y-122904761D01*
X108454819Y-122904761D02*
X108454819Y-123142856D01*
X108454819Y-123142856D02*
X108407200Y-123238094D01*
X108407200Y-123238094D02*
X108359580Y-123285713D01*
X106524819Y-134642857D02*
X106048628Y-134976190D01*
X106524819Y-135214285D02*
X105524819Y-135214285D01*
X105524819Y-135214285D02*
X105524819Y-134833333D01*
X105524819Y-134833333D02*
X105572438Y-134738095D01*
X105572438Y-134738095D02*
X105620057Y-134690476D01*
X105620057Y-134690476D02*
X105715295Y-134642857D01*
X105715295Y-134642857D02*
X105858152Y-134642857D01*
X105858152Y-134642857D02*
X105953390Y-134690476D01*
X105953390Y-134690476D02*
X106001009Y-134738095D01*
X106001009Y-134738095D02*
X106048628Y-134833333D01*
X106048628Y-134833333D02*
X106048628Y-135214285D01*
X106524819Y-133690476D02*
X106524819Y-134261904D01*
X106524819Y-133976190D02*
X105524819Y-133976190D01*
X105524819Y-133976190D02*
X105667676Y-134071428D01*
X105667676Y-134071428D02*
X105762914Y-134166666D01*
X105762914Y-134166666D02*
X105810533Y-134261904D01*
X105524819Y-133071428D02*
X105524819Y-132976190D01*
X105524819Y-132976190D02*
X105572438Y-132880952D01*
X105572438Y-132880952D02*
X105620057Y-132833333D01*
X105620057Y-132833333D02*
X105715295Y-132785714D01*
X105715295Y-132785714D02*
X105905771Y-132738095D01*
X105905771Y-132738095D02*
X106143866Y-132738095D01*
X106143866Y-132738095D02*
X106334342Y-132785714D01*
X106334342Y-132785714D02*
X106429580Y-132833333D01*
X106429580Y-132833333D02*
X106477200Y-132880952D01*
X106477200Y-132880952D02*
X106524819Y-132976190D01*
X106524819Y-132976190D02*
X106524819Y-133071428D01*
X106524819Y-133071428D02*
X106477200Y-133166666D01*
X106477200Y-133166666D02*
X106429580Y-133214285D01*
X106429580Y-133214285D02*
X106334342Y-133261904D01*
X106334342Y-133261904D02*
X106143866Y-133309523D01*
X106143866Y-133309523D02*
X105905771Y-133309523D01*
X105905771Y-133309523D02*
X105715295Y-133261904D01*
X105715295Y-133261904D02*
X105620057Y-133214285D01*
X105620057Y-133214285D02*
X105572438Y-133166666D01*
X105572438Y-133166666D02*
X105524819Y-133071428D01*
X140545180Y-110238095D02*
X139735657Y-110238095D01*
X139735657Y-110238095D02*
X139640419Y-110285714D01*
X139640419Y-110285714D02*
X139592800Y-110333333D01*
X139592800Y-110333333D02*
X139545180Y-110428571D01*
X139545180Y-110428571D02*
X139545180Y-110619047D01*
X139545180Y-110619047D02*
X139592800Y-110714285D01*
X139592800Y-110714285D02*
X139640419Y-110761904D01*
X139640419Y-110761904D02*
X139735657Y-110809523D01*
X139735657Y-110809523D02*
X140545180Y-110809523D01*
X140545180Y-111190476D02*
X140545180Y-111857142D01*
X140545180Y-111857142D02*
X139545180Y-111428571D01*
X135857142Y-111289580D02*
X135809523Y-111337200D01*
X135809523Y-111337200D02*
X135666666Y-111384819D01*
X135666666Y-111384819D02*
X135571428Y-111384819D01*
X135571428Y-111384819D02*
X135428571Y-111337200D01*
X135428571Y-111337200D02*
X135333333Y-111241961D01*
X135333333Y-111241961D02*
X135285714Y-111146723D01*
X135285714Y-111146723D02*
X135238095Y-110956247D01*
X135238095Y-110956247D02*
X135238095Y-110813390D01*
X135238095Y-110813390D02*
X135285714Y-110622914D01*
X135285714Y-110622914D02*
X135333333Y-110527676D01*
X135333333Y-110527676D02*
X135428571Y-110432438D01*
X135428571Y-110432438D02*
X135571428Y-110384819D01*
X135571428Y-110384819D02*
X135666666Y-110384819D01*
X135666666Y-110384819D02*
X135809523Y-110432438D01*
X135809523Y-110432438D02*
X135857142Y-110480057D01*
X136809523Y-111384819D02*
X136238095Y-111384819D01*
X136523809Y-111384819D02*
X136523809Y-110384819D01*
X136523809Y-110384819D02*
X136428571Y-110527676D01*
X136428571Y-110527676D02*
X136333333Y-110622914D01*
X136333333Y-110622914D02*
X136238095Y-110670533D01*
X137428571Y-110384819D02*
X137523809Y-110384819D01*
X137523809Y-110384819D02*
X137619047Y-110432438D01*
X137619047Y-110432438D02*
X137666666Y-110480057D01*
X137666666Y-110480057D02*
X137714285Y-110575295D01*
X137714285Y-110575295D02*
X137761904Y-110765771D01*
X137761904Y-110765771D02*
X137761904Y-111003866D01*
X137761904Y-111003866D02*
X137714285Y-111194342D01*
X137714285Y-111194342D02*
X137666666Y-111289580D01*
X137666666Y-111289580D02*
X137619047Y-111337200D01*
X137619047Y-111337200D02*
X137523809Y-111384819D01*
X137523809Y-111384819D02*
X137428571Y-111384819D01*
X137428571Y-111384819D02*
X137333333Y-111337200D01*
X137333333Y-111337200D02*
X137285714Y-111289580D01*
X137285714Y-111289580D02*
X137238095Y-111194342D01*
X137238095Y-111194342D02*
X137190476Y-111003866D01*
X137190476Y-111003866D02*
X137190476Y-110765771D01*
X137190476Y-110765771D02*
X137238095Y-110575295D01*
X137238095Y-110575295D02*
X137285714Y-110480057D01*
X137285714Y-110480057D02*
X137333333Y-110432438D01*
X137333333Y-110432438D02*
X137428571Y-110384819D01*
X139357142Y-128359580D02*
X139309523Y-128407200D01*
X139309523Y-128407200D02*
X139166666Y-128454819D01*
X139166666Y-128454819D02*
X139071428Y-128454819D01*
X139071428Y-128454819D02*
X138928571Y-128407200D01*
X138928571Y-128407200D02*
X138833333Y-128311961D01*
X138833333Y-128311961D02*
X138785714Y-128216723D01*
X138785714Y-128216723D02*
X138738095Y-128026247D01*
X138738095Y-128026247D02*
X138738095Y-127883390D01*
X138738095Y-127883390D02*
X138785714Y-127692914D01*
X138785714Y-127692914D02*
X138833333Y-127597676D01*
X138833333Y-127597676D02*
X138928571Y-127502438D01*
X138928571Y-127502438D02*
X139071428Y-127454819D01*
X139071428Y-127454819D02*
X139166666Y-127454819D01*
X139166666Y-127454819D02*
X139309523Y-127502438D01*
X139309523Y-127502438D02*
X139357142Y-127550057D01*
X140309523Y-128454819D02*
X139738095Y-128454819D01*
X140023809Y-128454819D02*
X140023809Y-127454819D01*
X140023809Y-127454819D02*
X139928571Y-127597676D01*
X139928571Y-127597676D02*
X139833333Y-127692914D01*
X139833333Y-127692914D02*
X139738095Y-127740533D01*
X140690476Y-127550057D02*
X140738095Y-127502438D01*
X140738095Y-127502438D02*
X140833333Y-127454819D01*
X140833333Y-127454819D02*
X141071428Y-127454819D01*
X141071428Y-127454819D02*
X141166666Y-127502438D01*
X141166666Y-127502438D02*
X141214285Y-127550057D01*
X141214285Y-127550057D02*
X141261904Y-127645295D01*
X141261904Y-127645295D02*
X141261904Y-127740533D01*
X141261904Y-127740533D02*
X141214285Y-127883390D01*
X141214285Y-127883390D02*
X140642857Y-128454819D01*
X140642857Y-128454819D02*
X141261904Y-128454819D01*
X123388095Y-110654819D02*
X123388095Y-111464342D01*
X123388095Y-111464342D02*
X123435714Y-111559580D01*
X123435714Y-111559580D02*
X123483333Y-111607200D01*
X123483333Y-111607200D02*
X123578571Y-111654819D01*
X123578571Y-111654819D02*
X123769047Y-111654819D01*
X123769047Y-111654819D02*
X123864285Y-111607200D01*
X123864285Y-111607200D02*
X123911904Y-111559580D01*
X123911904Y-111559580D02*
X123959523Y-111464342D01*
X123959523Y-111464342D02*
X123959523Y-110654819D01*
X124959523Y-111654819D02*
X124388095Y-111654819D01*
X124673809Y-111654819D02*
X124673809Y-110654819D01*
X124673809Y-110654819D02*
X124578571Y-110797676D01*
X124578571Y-110797676D02*
X124483333Y-110892914D01*
X124483333Y-110892914D02*
X124388095Y-110940533D01*
X107907514Y-136621080D02*
X107402438Y-137126156D01*
X107402438Y-137126156D02*
X107267751Y-137193500D01*
X107267751Y-137193500D02*
X107133064Y-137193500D01*
X107133064Y-137193500D02*
X106998377Y-137126156D01*
X106998377Y-137126156D02*
X106931033Y-137058813D01*
X108311575Y-137496546D02*
X107840171Y-137967950D01*
X108412591Y-137058813D02*
X107739156Y-137395530D01*
X107739156Y-137395530D02*
X108176888Y-137833263D01*
X115950057Y-118095238D02*
X115902438Y-118190476D01*
X115902438Y-118190476D02*
X115807200Y-118285714D01*
X115807200Y-118285714D02*
X115664342Y-118428571D01*
X115664342Y-118428571D02*
X115616723Y-118523809D01*
X115616723Y-118523809D02*
X115616723Y-118619047D01*
X115854819Y-118571428D02*
X115807200Y-118666666D01*
X115807200Y-118666666D02*
X115711961Y-118761904D01*
X115711961Y-118761904D02*
X115521485Y-118809523D01*
X115521485Y-118809523D02*
X115188152Y-118809523D01*
X115188152Y-118809523D02*
X114997676Y-118761904D01*
X114997676Y-118761904D02*
X114902438Y-118666666D01*
X114902438Y-118666666D02*
X114854819Y-118571428D01*
X114854819Y-118571428D02*
X114854819Y-118380952D01*
X114854819Y-118380952D02*
X114902438Y-118285714D01*
X114902438Y-118285714D02*
X114997676Y-118190476D01*
X114997676Y-118190476D02*
X115188152Y-118142857D01*
X115188152Y-118142857D02*
X115521485Y-118142857D01*
X115521485Y-118142857D02*
X115711961Y-118190476D01*
X115711961Y-118190476D02*
X115807200Y-118285714D01*
X115807200Y-118285714D02*
X115854819Y-118380952D01*
X115854819Y-118380952D02*
X115854819Y-118571428D01*
X115854819Y-117190476D02*
X115854819Y-117761904D01*
X115854819Y-117476190D02*
X114854819Y-117476190D01*
X114854819Y-117476190D02*
X114997676Y-117571428D01*
X114997676Y-117571428D02*
X115092914Y-117666666D01*
X115092914Y-117666666D02*
X115140533Y-117761904D01*
X113583333Y-122704819D02*
X113250000Y-122228628D01*
X113011905Y-122704819D02*
X113011905Y-121704819D01*
X113011905Y-121704819D02*
X113392857Y-121704819D01*
X113392857Y-121704819D02*
X113488095Y-121752438D01*
X113488095Y-121752438D02*
X113535714Y-121800057D01*
X113535714Y-121800057D02*
X113583333Y-121895295D01*
X113583333Y-121895295D02*
X113583333Y-122038152D01*
X113583333Y-122038152D02*
X113535714Y-122133390D01*
X113535714Y-122133390D02*
X113488095Y-122181009D01*
X113488095Y-122181009D02*
X113392857Y-122228628D01*
X113392857Y-122228628D02*
X113011905Y-122228628D01*
X114488095Y-121704819D02*
X114011905Y-121704819D01*
X114011905Y-121704819D02*
X113964286Y-122181009D01*
X113964286Y-122181009D02*
X114011905Y-122133390D01*
X114011905Y-122133390D02*
X114107143Y-122085771D01*
X114107143Y-122085771D02*
X114345238Y-122085771D01*
X114345238Y-122085771D02*
X114440476Y-122133390D01*
X114440476Y-122133390D02*
X114488095Y-122181009D01*
X114488095Y-122181009D02*
X114535714Y-122276247D01*
X114535714Y-122276247D02*
X114535714Y-122514342D01*
X114535714Y-122514342D02*
X114488095Y-122609580D01*
X114488095Y-122609580D02*
X114440476Y-122657200D01*
X114440476Y-122657200D02*
X114345238Y-122704819D01*
X114345238Y-122704819D02*
X114107143Y-122704819D01*
X114107143Y-122704819D02*
X114011905Y-122657200D01*
X114011905Y-122657200D02*
X113964286Y-122609580D01*
X137454819Y-122166666D02*
X136978628Y-122499999D01*
X137454819Y-122738094D02*
X136454819Y-122738094D01*
X136454819Y-122738094D02*
X136454819Y-122357142D01*
X136454819Y-122357142D02*
X136502438Y-122261904D01*
X136502438Y-122261904D02*
X136550057Y-122214285D01*
X136550057Y-122214285D02*
X136645295Y-122166666D01*
X136645295Y-122166666D02*
X136788152Y-122166666D01*
X136788152Y-122166666D02*
X136883390Y-122214285D01*
X136883390Y-122214285D02*
X136931009Y-122261904D01*
X136931009Y-122261904D02*
X136978628Y-122357142D01*
X136978628Y-122357142D02*
X136978628Y-122738094D01*
X136788152Y-121309523D02*
X137454819Y-121309523D01*
X136407200Y-121547618D02*
X137121485Y-121785713D01*
X137121485Y-121785713D02*
X137121485Y-121166666D01*
X142011905Y-132804819D02*
X142011905Y-131804819D01*
X142011905Y-131804819D02*
X142250000Y-131804819D01*
X142250000Y-131804819D02*
X142392857Y-131852438D01*
X142392857Y-131852438D02*
X142488095Y-131947676D01*
X142488095Y-131947676D02*
X142535714Y-132042914D01*
X142535714Y-132042914D02*
X142583333Y-132233390D01*
X142583333Y-132233390D02*
X142583333Y-132376247D01*
X142583333Y-132376247D02*
X142535714Y-132566723D01*
X142535714Y-132566723D02*
X142488095Y-132661961D01*
X142488095Y-132661961D02*
X142392857Y-132757200D01*
X142392857Y-132757200D02*
X142250000Y-132804819D01*
X142250000Y-132804819D02*
X142011905Y-132804819D01*
X143440476Y-131804819D02*
X143250000Y-131804819D01*
X143250000Y-131804819D02*
X143154762Y-131852438D01*
X143154762Y-131852438D02*
X143107143Y-131900057D01*
X143107143Y-131900057D02*
X143011905Y-132042914D01*
X143011905Y-132042914D02*
X142964286Y-132233390D01*
X142964286Y-132233390D02*
X142964286Y-132614342D01*
X142964286Y-132614342D02*
X143011905Y-132709580D01*
X143011905Y-132709580D02*
X143059524Y-132757200D01*
X143059524Y-132757200D02*
X143154762Y-132804819D01*
X143154762Y-132804819D02*
X143345238Y-132804819D01*
X143345238Y-132804819D02*
X143440476Y-132757200D01*
X143440476Y-132757200D02*
X143488095Y-132709580D01*
X143488095Y-132709580D02*
X143535714Y-132614342D01*
X143535714Y-132614342D02*
X143535714Y-132376247D01*
X143535714Y-132376247D02*
X143488095Y-132281009D01*
X143488095Y-132281009D02*
X143440476Y-132233390D01*
X143440476Y-132233390D02*
X143345238Y-132185771D01*
X143345238Y-132185771D02*
X143154762Y-132185771D01*
X143154762Y-132185771D02*
X143059524Y-132233390D01*
X143059524Y-132233390D02*
X143011905Y-132281009D01*
X143011905Y-132281009D02*
X142964286Y-132376247D01*
X114274819Y-108892857D02*
X113798628Y-109226190D01*
X114274819Y-109464285D02*
X113274819Y-109464285D01*
X113274819Y-109464285D02*
X113274819Y-109083333D01*
X113274819Y-109083333D02*
X113322438Y-108988095D01*
X113322438Y-108988095D02*
X113370057Y-108940476D01*
X113370057Y-108940476D02*
X113465295Y-108892857D01*
X113465295Y-108892857D02*
X113608152Y-108892857D01*
X113608152Y-108892857D02*
X113703390Y-108940476D01*
X113703390Y-108940476D02*
X113751009Y-108988095D01*
X113751009Y-108988095D02*
X113798628Y-109083333D01*
X113798628Y-109083333D02*
X113798628Y-109464285D01*
X114274819Y-107940476D02*
X114274819Y-108511904D01*
X114274819Y-108226190D02*
X113274819Y-108226190D01*
X113274819Y-108226190D02*
X113417676Y-108321428D01*
X113417676Y-108321428D02*
X113512914Y-108416666D01*
X113512914Y-108416666D02*
X113560533Y-108511904D01*
X113274819Y-107035714D02*
X113274819Y-107511904D01*
X113274819Y-107511904D02*
X113751009Y-107559523D01*
X113751009Y-107559523D02*
X113703390Y-107511904D01*
X113703390Y-107511904D02*
X113655771Y-107416666D01*
X113655771Y-107416666D02*
X113655771Y-107178571D01*
X113655771Y-107178571D02*
X113703390Y-107083333D01*
X113703390Y-107083333D02*
X113751009Y-107035714D01*
X113751009Y-107035714D02*
X113846247Y-106988095D01*
X113846247Y-106988095D02*
X114084342Y-106988095D01*
X114084342Y-106988095D02*
X114179580Y-107035714D01*
X114179580Y-107035714D02*
X114227200Y-107083333D01*
X114227200Y-107083333D02*
X114274819Y-107178571D01*
X114274819Y-107178571D02*
X114274819Y-107416666D01*
X114274819Y-107416666D02*
X114227200Y-107511904D01*
X114227200Y-107511904D02*
X114179580Y-107559523D01*
X103785714Y-113124819D02*
X103785714Y-112124819D01*
X103785714Y-112124819D02*
X104023809Y-112124819D01*
X104023809Y-112124819D02*
X104166666Y-112172438D01*
X104166666Y-112172438D02*
X104261904Y-112267676D01*
X104261904Y-112267676D02*
X104309523Y-112362914D01*
X104309523Y-112362914D02*
X104357142Y-112553390D01*
X104357142Y-112553390D02*
X104357142Y-112696247D01*
X104357142Y-112696247D02*
X104309523Y-112886723D01*
X104309523Y-112886723D02*
X104261904Y-112981961D01*
X104261904Y-112981961D02*
X104166666Y-113077200D01*
X104166666Y-113077200D02*
X104023809Y-113124819D01*
X104023809Y-113124819D02*
X103785714Y-113124819D01*
X105309523Y-113124819D02*
X104738095Y-113124819D01*
X105023809Y-113124819D02*
X105023809Y-112124819D01*
X105023809Y-112124819D02*
X104928571Y-112267676D01*
X104928571Y-112267676D02*
X104833333Y-112362914D01*
X104833333Y-112362914D02*
X104738095Y-112410533D01*
X106261904Y-113124819D02*
X105690476Y-113124819D01*
X105976190Y-113124819D02*
X105976190Y-112124819D01*
X105976190Y-112124819D02*
X105880952Y-112267676D01*
X105880952Y-112267676D02*
X105785714Y-112362914D01*
X105785714Y-112362914D02*
X105690476Y-112410533D01*
X107304819Y-130738094D02*
X106304819Y-130738094D01*
X106304819Y-130738094D02*
X106304819Y-130499999D01*
X106304819Y-130499999D02*
X106352438Y-130357142D01*
X106352438Y-130357142D02*
X106447676Y-130261904D01*
X106447676Y-130261904D02*
X106542914Y-130214285D01*
X106542914Y-130214285D02*
X106733390Y-130166666D01*
X106733390Y-130166666D02*
X106876247Y-130166666D01*
X106876247Y-130166666D02*
X107066723Y-130214285D01*
X107066723Y-130214285D02*
X107161961Y-130261904D01*
X107161961Y-130261904D02*
X107257200Y-130357142D01*
X107257200Y-130357142D02*
X107304819Y-130499999D01*
X107304819Y-130499999D02*
X107304819Y-130738094D01*
X106304819Y-129261904D02*
X106304819Y-129738094D01*
X106304819Y-129738094D02*
X106781009Y-129785713D01*
X106781009Y-129785713D02*
X106733390Y-129738094D01*
X106733390Y-129738094D02*
X106685771Y-129642856D01*
X106685771Y-129642856D02*
X106685771Y-129404761D01*
X106685771Y-129404761D02*
X106733390Y-129309523D01*
X106733390Y-129309523D02*
X106781009Y-129261904D01*
X106781009Y-129261904D02*
X106876247Y-129214285D01*
X106876247Y-129214285D02*
X107114342Y-129214285D01*
X107114342Y-129214285D02*
X107209580Y-129261904D01*
X107209580Y-129261904D02*
X107257200Y-129309523D01*
X107257200Y-129309523D02*
X107304819Y-129404761D01*
X107304819Y-129404761D02*
X107304819Y-129642856D01*
X107304819Y-129642856D02*
X107257200Y-129738094D01*
X107257200Y-129738094D02*
X107209580Y-129785713D01*
X143884819Y-116642857D02*
X143408628Y-116976190D01*
X143884819Y-117214285D02*
X142884819Y-117214285D01*
X142884819Y-117214285D02*
X142884819Y-116833333D01*
X142884819Y-116833333D02*
X142932438Y-116738095D01*
X142932438Y-116738095D02*
X142980057Y-116690476D01*
X142980057Y-116690476D02*
X143075295Y-116642857D01*
X143075295Y-116642857D02*
X143218152Y-116642857D01*
X143218152Y-116642857D02*
X143313390Y-116690476D01*
X143313390Y-116690476D02*
X143361009Y-116738095D01*
X143361009Y-116738095D02*
X143408628Y-116833333D01*
X143408628Y-116833333D02*
X143408628Y-117214285D01*
X143884819Y-115690476D02*
X143884819Y-116261904D01*
X143884819Y-115976190D02*
X142884819Y-115976190D01*
X142884819Y-115976190D02*
X143027676Y-116071428D01*
X143027676Y-116071428D02*
X143122914Y-116166666D01*
X143122914Y-116166666D02*
X143170533Y-116261904D01*
X142884819Y-115357142D02*
X142884819Y-114690476D01*
X142884819Y-114690476D02*
X143884819Y-115119047D01*
X118579819Y-122511904D02*
X119389342Y-122511904D01*
X119389342Y-122511904D02*
X119484580Y-122464285D01*
X119484580Y-122464285D02*
X119532200Y-122416666D01*
X119532200Y-122416666D02*
X119579819Y-122321428D01*
X119579819Y-122321428D02*
X119579819Y-122130952D01*
X119579819Y-122130952D02*
X119532200Y-122035714D01*
X119532200Y-122035714D02*
X119484580Y-121988095D01*
X119484580Y-121988095D02*
X119389342Y-121940476D01*
X119389342Y-121940476D02*
X118579819Y-121940476D01*
X118913152Y-121035714D02*
X119579819Y-121035714D01*
X118532200Y-121273809D02*
X119246485Y-121511904D01*
X119246485Y-121511904D02*
X119246485Y-120892857D01*
X122166666Y-108099819D02*
X122166666Y-108814104D01*
X122166666Y-108814104D02*
X122119047Y-108956961D01*
X122119047Y-108956961D02*
X122023809Y-109052200D01*
X122023809Y-109052200D02*
X121880952Y-109099819D01*
X121880952Y-109099819D02*
X121785714Y-109099819D01*
X123166666Y-109099819D02*
X122595238Y-109099819D01*
X122880952Y-109099819D02*
X122880952Y-108099819D01*
X122880952Y-108099819D02*
X122785714Y-108242676D01*
X122785714Y-108242676D02*
X122690476Y-108337914D01*
X122690476Y-108337914D02*
X122595238Y-108385533D01*
X137238095Y-119854819D02*
X137238095Y-120664342D01*
X137238095Y-120664342D02*
X137285714Y-120759580D01*
X137285714Y-120759580D02*
X137333333Y-120807200D01*
X137333333Y-120807200D02*
X137428571Y-120854819D01*
X137428571Y-120854819D02*
X137619047Y-120854819D01*
X137619047Y-120854819D02*
X137714285Y-120807200D01*
X137714285Y-120807200D02*
X137761904Y-120759580D01*
X137761904Y-120759580D02*
X137809523Y-120664342D01*
X137809523Y-120664342D02*
X137809523Y-119854819D01*
X138238095Y-119950057D02*
X138285714Y-119902438D01*
X138285714Y-119902438D02*
X138380952Y-119854819D01*
X138380952Y-119854819D02*
X138619047Y-119854819D01*
X138619047Y-119854819D02*
X138714285Y-119902438D01*
X138714285Y-119902438D02*
X138761904Y-119950057D01*
X138761904Y-119950057D02*
X138809523Y-120045295D01*
X138809523Y-120045295D02*
X138809523Y-120140533D01*
X138809523Y-120140533D02*
X138761904Y-120283390D01*
X138761904Y-120283390D02*
X138190476Y-120854819D01*
X138190476Y-120854819D02*
X138809523Y-120854819D01*
X101182142Y-110884819D02*
X100848809Y-110408628D01*
X100610714Y-110884819D02*
X100610714Y-109884819D01*
X100610714Y-109884819D02*
X100991666Y-109884819D01*
X100991666Y-109884819D02*
X101086904Y-109932438D01*
X101086904Y-109932438D02*
X101134523Y-109980057D01*
X101134523Y-109980057D02*
X101182142Y-110075295D01*
X101182142Y-110075295D02*
X101182142Y-110218152D01*
X101182142Y-110218152D02*
X101134523Y-110313390D01*
X101134523Y-110313390D02*
X101086904Y-110361009D01*
X101086904Y-110361009D02*
X100991666Y-110408628D01*
X100991666Y-110408628D02*
X100610714Y-110408628D01*
X102134523Y-110884819D02*
X101563095Y-110884819D01*
X101848809Y-110884819D02*
X101848809Y-109884819D01*
X101848809Y-109884819D02*
X101753571Y-110027676D01*
X101753571Y-110027676D02*
X101658333Y-110122914D01*
X101658333Y-110122914D02*
X101563095Y-110170533D01*
X102991666Y-109884819D02*
X102801190Y-109884819D01*
X102801190Y-109884819D02*
X102705952Y-109932438D01*
X102705952Y-109932438D02*
X102658333Y-109980057D01*
X102658333Y-109980057D02*
X102563095Y-110122914D01*
X102563095Y-110122914D02*
X102515476Y-110313390D01*
X102515476Y-110313390D02*
X102515476Y-110694342D01*
X102515476Y-110694342D02*
X102563095Y-110789580D01*
X102563095Y-110789580D02*
X102610714Y-110837200D01*
X102610714Y-110837200D02*
X102705952Y-110884819D01*
X102705952Y-110884819D02*
X102896428Y-110884819D01*
X102896428Y-110884819D02*
X102991666Y-110837200D01*
X102991666Y-110837200D02*
X103039285Y-110789580D01*
X103039285Y-110789580D02*
X103086904Y-110694342D01*
X103086904Y-110694342D02*
X103086904Y-110456247D01*
X103086904Y-110456247D02*
X103039285Y-110361009D01*
X103039285Y-110361009D02*
X102991666Y-110313390D01*
X102991666Y-110313390D02*
X102896428Y-110265771D01*
X102896428Y-110265771D02*
X102705952Y-110265771D01*
X102705952Y-110265771D02*
X102610714Y-110313390D01*
X102610714Y-110313390D02*
X102563095Y-110361009D01*
X102563095Y-110361009D02*
X102515476Y-110456247D01*
X136621080Y-137092485D02*
X137126156Y-137597561D01*
X137126156Y-137597561D02*
X137193500Y-137732248D01*
X137193500Y-137732248D02*
X137193500Y-137866935D01*
X137193500Y-137866935D02*
X137126156Y-138001622D01*
X137126156Y-138001622D02*
X137058813Y-138068966D01*
X137294515Y-136419050D02*
X136957798Y-136755767D01*
X136957798Y-136755767D02*
X137260843Y-137126156D01*
X137260843Y-137126156D02*
X137260843Y-137058813D01*
X137260843Y-137058813D02*
X137294515Y-136957798D01*
X137294515Y-136957798D02*
X137462874Y-136789439D01*
X137462874Y-136789439D02*
X137563889Y-136755767D01*
X137563889Y-136755767D02*
X137631233Y-136755767D01*
X137631233Y-136755767D02*
X137732248Y-136789439D01*
X137732248Y-136789439D02*
X137900607Y-136957798D01*
X137900607Y-136957798D02*
X137934278Y-137058813D01*
X137934278Y-137058813D02*
X137934278Y-137126156D01*
X137934278Y-137126156D02*
X137900607Y-137227172D01*
X137900607Y-137227172D02*
X137732248Y-137395530D01*
X137732248Y-137395530D02*
X137631233Y-137429202D01*
X137631233Y-137429202D02*
X137563889Y-137429202D01*
X106854819Y-122833333D02*
X107569104Y-122833333D01*
X107569104Y-122833333D02*
X107711961Y-122880952D01*
X107711961Y-122880952D02*
X107807200Y-122976190D01*
X107807200Y-122976190D02*
X107854819Y-123119047D01*
X107854819Y-123119047D02*
X107854819Y-123214285D01*
X106854819Y-121928571D02*
X106854819Y-122119047D01*
X106854819Y-122119047D02*
X106902438Y-122214285D01*
X106902438Y-122214285D02*
X106950057Y-122261904D01*
X106950057Y-122261904D02*
X107092914Y-122357142D01*
X107092914Y-122357142D02*
X107283390Y-122404761D01*
X107283390Y-122404761D02*
X107664342Y-122404761D01*
X107664342Y-122404761D02*
X107759580Y-122357142D01*
X107759580Y-122357142D02*
X107807200Y-122309523D01*
X107807200Y-122309523D02*
X107854819Y-122214285D01*
X107854819Y-122214285D02*
X107854819Y-122023809D01*
X107854819Y-122023809D02*
X107807200Y-121928571D01*
X107807200Y-121928571D02*
X107759580Y-121880952D01*
X107759580Y-121880952D02*
X107664342Y-121833333D01*
X107664342Y-121833333D02*
X107426247Y-121833333D01*
X107426247Y-121833333D02*
X107331009Y-121880952D01*
X107331009Y-121880952D02*
X107283390Y-121928571D01*
X107283390Y-121928571D02*
X107235771Y-122023809D01*
X107235771Y-122023809D02*
X107235771Y-122214285D01*
X107235771Y-122214285D02*
X107283390Y-122309523D01*
X107283390Y-122309523D02*
X107331009Y-122357142D01*
X107331009Y-122357142D02*
X107426247Y-122404761D01*
X127159580Y-115442857D02*
X127207200Y-115490476D01*
X127207200Y-115490476D02*
X127254819Y-115633333D01*
X127254819Y-115633333D02*
X127254819Y-115728571D01*
X127254819Y-115728571D02*
X127207200Y-115871428D01*
X127207200Y-115871428D02*
X127111961Y-115966666D01*
X127111961Y-115966666D02*
X127016723Y-116014285D01*
X127016723Y-116014285D02*
X126826247Y-116061904D01*
X126826247Y-116061904D02*
X126683390Y-116061904D01*
X126683390Y-116061904D02*
X126492914Y-116014285D01*
X126492914Y-116014285D02*
X126397676Y-115966666D01*
X126397676Y-115966666D02*
X126302438Y-115871428D01*
X126302438Y-115871428D02*
X126254819Y-115728571D01*
X126254819Y-115728571D02*
X126254819Y-115633333D01*
X126254819Y-115633333D02*
X126302438Y-115490476D01*
X126302438Y-115490476D02*
X126350057Y-115442857D01*
X127254819Y-114490476D02*
X127254819Y-115061904D01*
X127254819Y-114776190D02*
X126254819Y-114776190D01*
X126254819Y-114776190D02*
X126397676Y-114871428D01*
X126397676Y-114871428D02*
X126492914Y-114966666D01*
X126492914Y-114966666D02*
X126540533Y-115061904D01*
X126254819Y-114157142D02*
X126254819Y-113538095D01*
X126254819Y-113538095D02*
X126635771Y-113871428D01*
X126635771Y-113871428D02*
X126635771Y-113728571D01*
X126635771Y-113728571D02*
X126683390Y-113633333D01*
X126683390Y-113633333D02*
X126731009Y-113585714D01*
X126731009Y-113585714D02*
X126826247Y-113538095D01*
X126826247Y-113538095D02*
X127064342Y-113538095D01*
X127064342Y-113538095D02*
X127159580Y-113585714D01*
X127159580Y-113585714D02*
X127207200Y-113633333D01*
X127207200Y-113633333D02*
X127254819Y-113728571D01*
X127254819Y-113728571D02*
X127254819Y-114014285D01*
X127254819Y-114014285D02*
X127207200Y-114109523D01*
X127207200Y-114109523D02*
X127159580Y-114157142D01*
X110166666Y-121074819D02*
X110166666Y-121789104D01*
X110166666Y-121789104D02*
X110119047Y-121931961D01*
X110119047Y-121931961D02*
X110023809Y-122027200D01*
X110023809Y-122027200D02*
X109880952Y-122074819D01*
X109880952Y-122074819D02*
X109785714Y-122074819D01*
X110547619Y-121074819D02*
X111214285Y-121074819D01*
X111214285Y-121074819D02*
X110785714Y-122074819D01*
X114304819Y-108738094D02*
X113304819Y-108738094D01*
X113304819Y-108738094D02*
X113304819Y-108499999D01*
X113304819Y-108499999D02*
X113352438Y-108357142D01*
X113352438Y-108357142D02*
X113447676Y-108261904D01*
X113447676Y-108261904D02*
X113542914Y-108214285D01*
X113542914Y-108214285D02*
X113733390Y-108166666D01*
X113733390Y-108166666D02*
X113876247Y-108166666D01*
X113876247Y-108166666D02*
X114066723Y-108214285D01*
X114066723Y-108214285D02*
X114161961Y-108261904D01*
X114161961Y-108261904D02*
X114257200Y-108357142D01*
X114257200Y-108357142D02*
X114304819Y-108499999D01*
X114304819Y-108499999D02*
X114304819Y-108738094D01*
X113304819Y-107833332D02*
X113304819Y-107214285D01*
X113304819Y-107214285D02*
X113685771Y-107547618D01*
X113685771Y-107547618D02*
X113685771Y-107404761D01*
X113685771Y-107404761D02*
X113733390Y-107309523D01*
X113733390Y-107309523D02*
X113781009Y-107261904D01*
X113781009Y-107261904D02*
X113876247Y-107214285D01*
X113876247Y-107214285D02*
X114114342Y-107214285D01*
X114114342Y-107214285D02*
X114209580Y-107261904D01*
X114209580Y-107261904D02*
X114257200Y-107309523D01*
X114257200Y-107309523D02*
X114304819Y-107404761D01*
X114304819Y-107404761D02*
X114304819Y-107690475D01*
X114304819Y-107690475D02*
X114257200Y-107785713D01*
X114257200Y-107785713D02*
X114209580Y-107833332D01*
X127607142Y-108274819D02*
X127273809Y-107798628D01*
X127035714Y-108274819D02*
X127035714Y-107274819D01*
X127035714Y-107274819D02*
X127416666Y-107274819D01*
X127416666Y-107274819D02*
X127511904Y-107322438D01*
X127511904Y-107322438D02*
X127559523Y-107370057D01*
X127559523Y-107370057D02*
X127607142Y-107465295D01*
X127607142Y-107465295D02*
X127607142Y-107608152D01*
X127607142Y-107608152D02*
X127559523Y-107703390D01*
X127559523Y-107703390D02*
X127511904Y-107751009D01*
X127511904Y-107751009D02*
X127416666Y-107798628D01*
X127416666Y-107798628D02*
X127035714Y-107798628D01*
X127988095Y-107370057D02*
X128035714Y-107322438D01*
X128035714Y-107322438D02*
X128130952Y-107274819D01*
X128130952Y-107274819D02*
X128369047Y-107274819D01*
X128369047Y-107274819D02*
X128464285Y-107322438D01*
X128464285Y-107322438D02*
X128511904Y-107370057D01*
X128511904Y-107370057D02*
X128559523Y-107465295D01*
X128559523Y-107465295D02*
X128559523Y-107560533D01*
X128559523Y-107560533D02*
X128511904Y-107703390D01*
X128511904Y-107703390D02*
X127940476Y-108274819D01*
X127940476Y-108274819D02*
X128559523Y-108274819D01*
X129511904Y-108274819D02*
X128940476Y-108274819D01*
X129226190Y-108274819D02*
X129226190Y-107274819D01*
X129226190Y-107274819D02*
X129130952Y-107417676D01*
X129130952Y-107417676D02*
X129035714Y-107512914D01*
X129035714Y-107512914D02*
X128940476Y-107560533D01*
X136359580Y-143916666D02*
X136407200Y-143964285D01*
X136407200Y-143964285D02*
X136454819Y-144107142D01*
X136454819Y-144107142D02*
X136454819Y-144202380D01*
X136454819Y-144202380D02*
X136407200Y-144345237D01*
X136407200Y-144345237D02*
X136311961Y-144440475D01*
X136311961Y-144440475D02*
X136216723Y-144488094D01*
X136216723Y-144488094D02*
X136026247Y-144535713D01*
X136026247Y-144535713D02*
X135883390Y-144535713D01*
X135883390Y-144535713D02*
X135692914Y-144488094D01*
X135692914Y-144488094D02*
X135597676Y-144440475D01*
X135597676Y-144440475D02*
X135502438Y-144345237D01*
X135502438Y-144345237D02*
X135454819Y-144202380D01*
X135454819Y-144202380D02*
X135454819Y-144107142D01*
X135454819Y-144107142D02*
X135502438Y-143964285D01*
X135502438Y-143964285D02*
X135550057Y-143916666D01*
X135454819Y-143583332D02*
X135454819Y-142964285D01*
X135454819Y-142964285D02*
X135835771Y-143297618D01*
X135835771Y-143297618D02*
X135835771Y-143154761D01*
X135835771Y-143154761D02*
X135883390Y-143059523D01*
X135883390Y-143059523D02*
X135931009Y-143011904D01*
X135931009Y-143011904D02*
X136026247Y-142964285D01*
X136026247Y-142964285D02*
X136264342Y-142964285D01*
X136264342Y-142964285D02*
X136359580Y-143011904D01*
X136359580Y-143011904D02*
X136407200Y-143059523D01*
X136407200Y-143059523D02*
X136454819Y-143154761D01*
X136454819Y-143154761D02*
X136454819Y-143440475D01*
X136454819Y-143440475D02*
X136407200Y-143535713D01*
X136407200Y-143535713D02*
X136359580Y-143583332D01*
X133357142Y-119954819D02*
X133023809Y-119478628D01*
X132785714Y-119954819D02*
X132785714Y-118954819D01*
X132785714Y-118954819D02*
X133166666Y-118954819D01*
X133166666Y-118954819D02*
X133261904Y-119002438D01*
X133261904Y-119002438D02*
X133309523Y-119050057D01*
X133309523Y-119050057D02*
X133357142Y-119145295D01*
X133357142Y-119145295D02*
X133357142Y-119288152D01*
X133357142Y-119288152D02*
X133309523Y-119383390D01*
X133309523Y-119383390D02*
X133261904Y-119431009D01*
X133261904Y-119431009D02*
X133166666Y-119478628D01*
X133166666Y-119478628D02*
X132785714Y-119478628D01*
X134309523Y-119954819D02*
X133738095Y-119954819D01*
X134023809Y-119954819D02*
X134023809Y-118954819D01*
X134023809Y-118954819D02*
X133928571Y-119097676D01*
X133928571Y-119097676D02*
X133833333Y-119192914D01*
X133833333Y-119192914D02*
X133738095Y-119240533D01*
X134785714Y-119954819D02*
X134976190Y-119954819D01*
X134976190Y-119954819D02*
X135071428Y-119907200D01*
X135071428Y-119907200D02*
X135119047Y-119859580D01*
X135119047Y-119859580D02*
X135214285Y-119716723D01*
X135214285Y-119716723D02*
X135261904Y-119526247D01*
X135261904Y-119526247D02*
X135261904Y-119145295D01*
X135261904Y-119145295D02*
X135214285Y-119050057D01*
X135214285Y-119050057D02*
X135166666Y-119002438D01*
X135166666Y-119002438D02*
X135071428Y-118954819D01*
X135071428Y-118954819D02*
X134880952Y-118954819D01*
X134880952Y-118954819D02*
X134785714Y-119002438D01*
X134785714Y-119002438D02*
X134738095Y-119050057D01*
X134738095Y-119050057D02*
X134690476Y-119145295D01*
X134690476Y-119145295D02*
X134690476Y-119383390D01*
X134690476Y-119383390D02*
X134738095Y-119478628D01*
X134738095Y-119478628D02*
X134785714Y-119526247D01*
X134785714Y-119526247D02*
X134880952Y-119573866D01*
X134880952Y-119573866D02*
X135071428Y-119573866D01*
X135071428Y-119573866D02*
X135166666Y-119526247D01*
X135166666Y-119526247D02*
X135214285Y-119478628D01*
X135214285Y-119478628D02*
X135261904Y-119383390D01*
X131554819Y-115642857D02*
X131078628Y-115976190D01*
X131554819Y-116214285D02*
X130554819Y-116214285D01*
X130554819Y-116214285D02*
X130554819Y-115833333D01*
X130554819Y-115833333D02*
X130602438Y-115738095D01*
X130602438Y-115738095D02*
X130650057Y-115690476D01*
X130650057Y-115690476D02*
X130745295Y-115642857D01*
X130745295Y-115642857D02*
X130888152Y-115642857D01*
X130888152Y-115642857D02*
X130983390Y-115690476D01*
X130983390Y-115690476D02*
X131031009Y-115738095D01*
X131031009Y-115738095D02*
X131078628Y-115833333D01*
X131078628Y-115833333D02*
X131078628Y-116214285D01*
X130650057Y-115261904D02*
X130602438Y-115214285D01*
X130602438Y-115214285D02*
X130554819Y-115119047D01*
X130554819Y-115119047D02*
X130554819Y-114880952D01*
X130554819Y-114880952D02*
X130602438Y-114785714D01*
X130602438Y-114785714D02*
X130650057Y-114738095D01*
X130650057Y-114738095D02*
X130745295Y-114690476D01*
X130745295Y-114690476D02*
X130840533Y-114690476D01*
X130840533Y-114690476D02*
X130983390Y-114738095D01*
X130983390Y-114738095D02*
X131554819Y-115309523D01*
X131554819Y-115309523D02*
X131554819Y-114690476D01*
X130554819Y-114071428D02*
X130554819Y-113976190D01*
X130554819Y-113976190D02*
X130602438Y-113880952D01*
X130602438Y-113880952D02*
X130650057Y-113833333D01*
X130650057Y-113833333D02*
X130745295Y-113785714D01*
X130745295Y-113785714D02*
X130935771Y-113738095D01*
X130935771Y-113738095D02*
X131173866Y-113738095D01*
X131173866Y-113738095D02*
X131364342Y-113785714D01*
X131364342Y-113785714D02*
X131459580Y-113833333D01*
X131459580Y-113833333D02*
X131507200Y-113880952D01*
X131507200Y-113880952D02*
X131554819Y-113976190D01*
X131554819Y-113976190D02*
X131554819Y-114071428D01*
X131554819Y-114071428D02*
X131507200Y-114166666D01*
X131507200Y-114166666D02*
X131459580Y-114214285D01*
X131459580Y-114214285D02*
X131364342Y-114261904D01*
X131364342Y-114261904D02*
X131173866Y-114309523D01*
X131173866Y-114309523D02*
X130935771Y-114309523D01*
X130935771Y-114309523D02*
X130745295Y-114261904D01*
X130745295Y-114261904D02*
X130650057Y-114214285D01*
X130650057Y-114214285D02*
X130602438Y-114166666D01*
X130602438Y-114166666D02*
X130554819Y-114071428D01*
X101859580Y-130550357D02*
X101907200Y-130597976D01*
X101907200Y-130597976D02*
X101954819Y-130740833D01*
X101954819Y-130740833D02*
X101954819Y-130836071D01*
X101954819Y-130836071D02*
X101907200Y-130978928D01*
X101907200Y-130978928D02*
X101811961Y-131074166D01*
X101811961Y-131074166D02*
X101716723Y-131121785D01*
X101716723Y-131121785D02*
X101526247Y-131169404D01*
X101526247Y-131169404D02*
X101383390Y-131169404D01*
X101383390Y-131169404D02*
X101192914Y-131121785D01*
X101192914Y-131121785D02*
X101097676Y-131074166D01*
X101097676Y-131074166D02*
X101002438Y-130978928D01*
X101002438Y-130978928D02*
X100954819Y-130836071D01*
X100954819Y-130836071D02*
X100954819Y-130740833D01*
X100954819Y-130740833D02*
X101002438Y-130597976D01*
X101002438Y-130597976D02*
X101050057Y-130550357D01*
X101954819Y-129597976D02*
X101954819Y-130169404D01*
X101954819Y-129883690D02*
X100954819Y-129883690D01*
X100954819Y-129883690D02*
X101097676Y-129978928D01*
X101097676Y-129978928D02*
X101192914Y-130074166D01*
X101192914Y-130074166D02*
X101240533Y-130169404D01*
X101954819Y-128645595D02*
X101954819Y-129217023D01*
X101954819Y-128931309D02*
X100954819Y-128931309D01*
X100954819Y-128931309D02*
X101097676Y-129026547D01*
X101097676Y-129026547D02*
X101192914Y-129121785D01*
X101192914Y-129121785D02*
X101240533Y-129217023D01*
X135454819Y-142142857D02*
X134978628Y-142476190D01*
X135454819Y-142714285D02*
X134454819Y-142714285D01*
X134454819Y-142714285D02*
X134454819Y-142333333D01*
X134454819Y-142333333D02*
X134502438Y-142238095D01*
X134502438Y-142238095D02*
X134550057Y-142190476D01*
X134550057Y-142190476D02*
X134645295Y-142142857D01*
X134645295Y-142142857D02*
X134788152Y-142142857D01*
X134788152Y-142142857D02*
X134883390Y-142190476D01*
X134883390Y-142190476D02*
X134931009Y-142238095D01*
X134931009Y-142238095D02*
X134978628Y-142333333D01*
X134978628Y-142333333D02*
X134978628Y-142714285D01*
X135454819Y-141190476D02*
X135454819Y-141761904D01*
X135454819Y-141476190D02*
X134454819Y-141476190D01*
X134454819Y-141476190D02*
X134597676Y-141571428D01*
X134597676Y-141571428D02*
X134692914Y-141666666D01*
X134692914Y-141666666D02*
X134740533Y-141761904D01*
X134550057Y-140809523D02*
X134502438Y-140761904D01*
X134502438Y-140761904D02*
X134454819Y-140666666D01*
X134454819Y-140666666D02*
X134454819Y-140428571D01*
X134454819Y-140428571D02*
X134502438Y-140333333D01*
X134502438Y-140333333D02*
X134550057Y-140285714D01*
X134550057Y-140285714D02*
X134645295Y-140238095D01*
X134645295Y-140238095D02*
X134740533Y-140238095D01*
X134740533Y-140238095D02*
X134883390Y-140285714D01*
X134883390Y-140285714D02*
X135454819Y-140857142D01*
X135454819Y-140857142D02*
X135454819Y-140238095D01*
X133916666Y-121074819D02*
X133916666Y-121789104D01*
X133916666Y-121789104D02*
X133869047Y-121931961D01*
X133869047Y-121931961D02*
X133773809Y-122027200D01*
X133773809Y-122027200D02*
X133630952Y-122074819D01*
X133630952Y-122074819D02*
X133535714Y-122074819D01*
X134535714Y-121503390D02*
X134440476Y-121455771D01*
X134440476Y-121455771D02*
X134392857Y-121408152D01*
X134392857Y-121408152D02*
X134345238Y-121312914D01*
X134345238Y-121312914D02*
X134345238Y-121265295D01*
X134345238Y-121265295D02*
X134392857Y-121170057D01*
X134392857Y-121170057D02*
X134440476Y-121122438D01*
X134440476Y-121122438D02*
X134535714Y-121074819D01*
X134535714Y-121074819D02*
X134726190Y-121074819D01*
X134726190Y-121074819D02*
X134821428Y-121122438D01*
X134821428Y-121122438D02*
X134869047Y-121170057D01*
X134869047Y-121170057D02*
X134916666Y-121265295D01*
X134916666Y-121265295D02*
X134916666Y-121312914D01*
X134916666Y-121312914D02*
X134869047Y-121408152D01*
X134869047Y-121408152D02*
X134821428Y-121455771D01*
X134821428Y-121455771D02*
X134726190Y-121503390D01*
X134726190Y-121503390D02*
X134535714Y-121503390D01*
X134535714Y-121503390D02*
X134440476Y-121551009D01*
X134440476Y-121551009D02*
X134392857Y-121598628D01*
X134392857Y-121598628D02*
X134345238Y-121693866D01*
X134345238Y-121693866D02*
X134345238Y-121884342D01*
X134345238Y-121884342D02*
X134392857Y-121979580D01*
X134392857Y-121979580D02*
X134440476Y-122027200D01*
X134440476Y-122027200D02*
X134535714Y-122074819D01*
X134535714Y-122074819D02*
X134726190Y-122074819D01*
X134726190Y-122074819D02*
X134821428Y-122027200D01*
X134821428Y-122027200D02*
X134869047Y-121979580D01*
X134869047Y-121979580D02*
X134916666Y-121884342D01*
X134916666Y-121884342D02*
X134916666Y-121693866D01*
X134916666Y-121693866D02*
X134869047Y-121598628D01*
X134869047Y-121598628D02*
X134821428Y-121551009D01*
X134821428Y-121551009D02*
X134726190Y-121503390D01*
X130333333Y-118359580D02*
X130285714Y-118407200D01*
X130285714Y-118407200D02*
X130142857Y-118454819D01*
X130142857Y-118454819D02*
X130047619Y-118454819D01*
X130047619Y-118454819D02*
X129904762Y-118407200D01*
X129904762Y-118407200D02*
X129809524Y-118311961D01*
X129809524Y-118311961D02*
X129761905Y-118216723D01*
X129761905Y-118216723D02*
X129714286Y-118026247D01*
X129714286Y-118026247D02*
X129714286Y-117883390D01*
X129714286Y-117883390D02*
X129761905Y-117692914D01*
X129761905Y-117692914D02*
X129809524Y-117597676D01*
X129809524Y-117597676D02*
X129904762Y-117502438D01*
X129904762Y-117502438D02*
X130047619Y-117454819D01*
X130047619Y-117454819D02*
X130142857Y-117454819D01*
X130142857Y-117454819D02*
X130285714Y-117502438D01*
X130285714Y-117502438D02*
X130333333Y-117550057D01*
X131190476Y-117454819D02*
X131000000Y-117454819D01*
X131000000Y-117454819D02*
X130904762Y-117502438D01*
X130904762Y-117502438D02*
X130857143Y-117550057D01*
X130857143Y-117550057D02*
X130761905Y-117692914D01*
X130761905Y-117692914D02*
X130714286Y-117883390D01*
X130714286Y-117883390D02*
X130714286Y-118264342D01*
X130714286Y-118264342D02*
X130761905Y-118359580D01*
X130761905Y-118359580D02*
X130809524Y-118407200D01*
X130809524Y-118407200D02*
X130904762Y-118454819D01*
X130904762Y-118454819D02*
X131095238Y-118454819D01*
X131095238Y-118454819D02*
X131190476Y-118407200D01*
X131190476Y-118407200D02*
X131238095Y-118359580D01*
X131238095Y-118359580D02*
X131285714Y-118264342D01*
X131285714Y-118264342D02*
X131285714Y-118026247D01*
X131285714Y-118026247D02*
X131238095Y-117931009D01*
X131238095Y-117931009D02*
X131190476Y-117883390D01*
X131190476Y-117883390D02*
X131095238Y-117835771D01*
X131095238Y-117835771D02*
X130904762Y-117835771D01*
X130904762Y-117835771D02*
X130809524Y-117883390D01*
X130809524Y-117883390D02*
X130761905Y-117931009D01*
X130761905Y-117931009D02*
X130714286Y-118026247D01*
X119883333Y-112204819D02*
X119550000Y-111728628D01*
X119311905Y-112204819D02*
X119311905Y-111204819D01*
X119311905Y-111204819D02*
X119692857Y-111204819D01*
X119692857Y-111204819D02*
X119788095Y-111252438D01*
X119788095Y-111252438D02*
X119835714Y-111300057D01*
X119835714Y-111300057D02*
X119883333Y-111395295D01*
X119883333Y-111395295D02*
X119883333Y-111538152D01*
X119883333Y-111538152D02*
X119835714Y-111633390D01*
X119835714Y-111633390D02*
X119788095Y-111681009D01*
X119788095Y-111681009D02*
X119692857Y-111728628D01*
X119692857Y-111728628D02*
X119311905Y-111728628D01*
X120216667Y-111204819D02*
X120835714Y-111204819D01*
X120835714Y-111204819D02*
X120502381Y-111585771D01*
X120502381Y-111585771D02*
X120645238Y-111585771D01*
X120645238Y-111585771D02*
X120740476Y-111633390D01*
X120740476Y-111633390D02*
X120788095Y-111681009D01*
X120788095Y-111681009D02*
X120835714Y-111776247D01*
X120835714Y-111776247D02*
X120835714Y-112014342D01*
X120835714Y-112014342D02*
X120788095Y-112109580D01*
X120788095Y-112109580D02*
X120740476Y-112157200D01*
X120740476Y-112157200D02*
X120645238Y-112204819D01*
X120645238Y-112204819D02*
X120359524Y-112204819D01*
X120359524Y-112204819D02*
X120264286Y-112157200D01*
X120264286Y-112157200D02*
X120216667Y-112109580D01*
X107136512Y-107607917D02*
X107641588Y-108112993D01*
X107641588Y-108112993D02*
X107708932Y-108247680D01*
X107708932Y-108247680D02*
X107708932Y-108382367D01*
X107708932Y-108382367D02*
X107641588Y-108517054D01*
X107641588Y-108517054D02*
X107574245Y-108584398D01*
X107506901Y-107372214D02*
X107506901Y-107304871D01*
X107506901Y-107304871D02*
X107540573Y-107203856D01*
X107540573Y-107203856D02*
X107708932Y-107035497D01*
X107708932Y-107035497D02*
X107809947Y-107001825D01*
X107809947Y-107001825D02*
X107877291Y-107001825D01*
X107877291Y-107001825D02*
X107978306Y-107035497D01*
X107978306Y-107035497D02*
X108045649Y-107102840D01*
X108045649Y-107102840D02*
X108112993Y-107237527D01*
X108112993Y-107237527D02*
X108112993Y-108045649D01*
X108112993Y-108045649D02*
X108550726Y-107607917D01*
X135611905Y-113704819D02*
X135611905Y-112704819D01*
X135611905Y-112704819D02*
X135850000Y-112704819D01*
X135850000Y-112704819D02*
X135992857Y-112752438D01*
X135992857Y-112752438D02*
X136088095Y-112847676D01*
X136088095Y-112847676D02*
X136135714Y-112942914D01*
X136135714Y-112942914D02*
X136183333Y-113133390D01*
X136183333Y-113133390D02*
X136183333Y-113276247D01*
X136183333Y-113276247D02*
X136135714Y-113466723D01*
X136135714Y-113466723D02*
X136088095Y-113561961D01*
X136088095Y-113561961D02*
X135992857Y-113657200D01*
X135992857Y-113657200D02*
X135850000Y-113704819D01*
X135850000Y-113704819D02*
X135611905Y-113704819D01*
X137040476Y-113038152D02*
X137040476Y-113704819D01*
X136802381Y-112657200D02*
X136564286Y-113371485D01*
X136564286Y-113371485D02*
X137183333Y-113371485D01*
X131359580Y-107642857D02*
X131407200Y-107690476D01*
X131407200Y-107690476D02*
X131454819Y-107833333D01*
X131454819Y-107833333D02*
X131454819Y-107928571D01*
X131454819Y-107928571D02*
X131407200Y-108071428D01*
X131407200Y-108071428D02*
X131311961Y-108166666D01*
X131311961Y-108166666D02*
X131216723Y-108214285D01*
X131216723Y-108214285D02*
X131026247Y-108261904D01*
X131026247Y-108261904D02*
X130883390Y-108261904D01*
X130883390Y-108261904D02*
X130692914Y-108214285D01*
X130692914Y-108214285D02*
X130597676Y-108166666D01*
X130597676Y-108166666D02*
X130502438Y-108071428D01*
X130502438Y-108071428D02*
X130454819Y-107928571D01*
X130454819Y-107928571D02*
X130454819Y-107833333D01*
X130454819Y-107833333D02*
X130502438Y-107690476D01*
X130502438Y-107690476D02*
X130550057Y-107642857D01*
X131454819Y-106690476D02*
X131454819Y-107261904D01*
X131454819Y-106976190D02*
X130454819Y-106976190D01*
X130454819Y-106976190D02*
X130597676Y-107071428D01*
X130597676Y-107071428D02*
X130692914Y-107166666D01*
X130692914Y-107166666D02*
X130740533Y-107261904D01*
X130454819Y-105785714D02*
X130454819Y-106261904D01*
X130454819Y-106261904D02*
X130931009Y-106309523D01*
X130931009Y-106309523D02*
X130883390Y-106261904D01*
X130883390Y-106261904D02*
X130835771Y-106166666D01*
X130835771Y-106166666D02*
X130835771Y-105928571D01*
X130835771Y-105928571D02*
X130883390Y-105833333D01*
X130883390Y-105833333D02*
X130931009Y-105785714D01*
X130931009Y-105785714D02*
X131026247Y-105738095D01*
X131026247Y-105738095D02*
X131264342Y-105738095D01*
X131264342Y-105738095D02*
X131359580Y-105785714D01*
X131359580Y-105785714D02*
X131407200Y-105833333D01*
X131407200Y-105833333D02*
X131454819Y-105928571D01*
X131454819Y-105928571D02*
X131454819Y-106166666D01*
X131454819Y-106166666D02*
X131407200Y-106261904D01*
X131407200Y-106261904D02*
X131359580Y-106309523D01*
X101319642Y-115024819D02*
X100986309Y-114548628D01*
X100748214Y-115024819D02*
X100748214Y-114024819D01*
X100748214Y-114024819D02*
X101129166Y-114024819D01*
X101129166Y-114024819D02*
X101224404Y-114072438D01*
X101224404Y-114072438D02*
X101272023Y-114120057D01*
X101272023Y-114120057D02*
X101319642Y-114215295D01*
X101319642Y-114215295D02*
X101319642Y-114358152D01*
X101319642Y-114358152D02*
X101272023Y-114453390D01*
X101272023Y-114453390D02*
X101224404Y-114501009D01*
X101224404Y-114501009D02*
X101129166Y-114548628D01*
X101129166Y-114548628D02*
X100748214Y-114548628D01*
X101700595Y-114120057D02*
X101748214Y-114072438D01*
X101748214Y-114072438D02*
X101843452Y-114024819D01*
X101843452Y-114024819D02*
X102081547Y-114024819D01*
X102081547Y-114024819D02*
X102176785Y-114072438D01*
X102176785Y-114072438D02*
X102224404Y-114120057D01*
X102224404Y-114120057D02*
X102272023Y-114215295D01*
X102272023Y-114215295D02*
X102272023Y-114310533D01*
X102272023Y-114310533D02*
X102224404Y-114453390D01*
X102224404Y-114453390D02*
X101652976Y-115024819D01*
X101652976Y-115024819D02*
X102272023Y-115024819D01*
X102605357Y-114024819D02*
X103224404Y-114024819D01*
X103224404Y-114024819D02*
X102891071Y-114405771D01*
X102891071Y-114405771D02*
X103033928Y-114405771D01*
X103033928Y-114405771D02*
X103129166Y-114453390D01*
X103129166Y-114453390D02*
X103176785Y-114501009D01*
X103176785Y-114501009D02*
X103224404Y-114596247D01*
X103224404Y-114596247D02*
X103224404Y-114834342D01*
X103224404Y-114834342D02*
X103176785Y-114929580D01*
X103176785Y-114929580D02*
X103129166Y-114977200D01*
X103129166Y-114977200D02*
X103033928Y-115024819D01*
X103033928Y-115024819D02*
X102748214Y-115024819D01*
X102748214Y-115024819D02*
X102652976Y-114977200D01*
X102652976Y-114977200D02*
X102605357Y-114929580D01*
X126184819Y-109966666D02*
X125708628Y-110299999D01*
X126184819Y-110538094D02*
X125184819Y-110538094D01*
X125184819Y-110538094D02*
X125184819Y-110157142D01*
X125184819Y-110157142D02*
X125232438Y-110061904D01*
X125232438Y-110061904D02*
X125280057Y-110014285D01*
X125280057Y-110014285D02*
X125375295Y-109966666D01*
X125375295Y-109966666D02*
X125518152Y-109966666D01*
X125518152Y-109966666D02*
X125613390Y-110014285D01*
X125613390Y-110014285D02*
X125661009Y-110061904D01*
X125661009Y-110061904D02*
X125708628Y-110157142D01*
X125708628Y-110157142D02*
X125708628Y-110538094D01*
X126184819Y-109014285D02*
X126184819Y-109585713D01*
X126184819Y-109299999D02*
X125184819Y-109299999D01*
X125184819Y-109299999D02*
X125327676Y-109395237D01*
X125327676Y-109395237D02*
X125422914Y-109490475D01*
X125422914Y-109490475D02*
X125470533Y-109585713D01*
X136704819Y-140142857D02*
X136228628Y-140476190D01*
X136704819Y-140714285D02*
X135704819Y-140714285D01*
X135704819Y-140714285D02*
X135704819Y-140333333D01*
X135704819Y-140333333D02*
X135752438Y-140238095D01*
X135752438Y-140238095D02*
X135800057Y-140190476D01*
X135800057Y-140190476D02*
X135895295Y-140142857D01*
X135895295Y-140142857D02*
X136038152Y-140142857D01*
X136038152Y-140142857D02*
X136133390Y-140190476D01*
X136133390Y-140190476D02*
X136181009Y-140238095D01*
X136181009Y-140238095D02*
X136228628Y-140333333D01*
X136228628Y-140333333D02*
X136228628Y-140714285D01*
X136704819Y-139190476D02*
X136704819Y-139761904D01*
X136704819Y-139476190D02*
X135704819Y-139476190D01*
X135704819Y-139476190D02*
X135847676Y-139571428D01*
X135847676Y-139571428D02*
X135942914Y-139666666D01*
X135942914Y-139666666D02*
X135990533Y-139761904D01*
X135704819Y-138857142D02*
X135704819Y-138238095D01*
X135704819Y-138238095D02*
X136085771Y-138571428D01*
X136085771Y-138571428D02*
X136085771Y-138428571D01*
X136085771Y-138428571D02*
X136133390Y-138333333D01*
X136133390Y-138333333D02*
X136181009Y-138285714D01*
X136181009Y-138285714D02*
X136276247Y-138238095D01*
X136276247Y-138238095D02*
X136514342Y-138238095D01*
X136514342Y-138238095D02*
X136609580Y-138285714D01*
X136609580Y-138285714D02*
X136657200Y-138333333D01*
X136657200Y-138333333D02*
X136704819Y-138428571D01*
X136704819Y-138428571D02*
X136704819Y-138714285D01*
X136704819Y-138714285D02*
X136657200Y-138809523D01*
X136657200Y-138809523D02*
X136609580Y-138857142D01*
X103785714Y-115534819D02*
X103785714Y-114534819D01*
X103785714Y-114534819D02*
X104023809Y-114534819D01*
X104023809Y-114534819D02*
X104166666Y-114582438D01*
X104166666Y-114582438D02*
X104261904Y-114677676D01*
X104261904Y-114677676D02*
X104309523Y-114772914D01*
X104309523Y-114772914D02*
X104357142Y-114963390D01*
X104357142Y-114963390D02*
X104357142Y-115106247D01*
X104357142Y-115106247D02*
X104309523Y-115296723D01*
X104309523Y-115296723D02*
X104261904Y-115391961D01*
X104261904Y-115391961D02*
X104166666Y-115487200D01*
X104166666Y-115487200D02*
X104023809Y-115534819D01*
X104023809Y-115534819D02*
X103785714Y-115534819D01*
X105309523Y-115534819D02*
X104738095Y-115534819D01*
X105023809Y-115534819D02*
X105023809Y-114534819D01*
X105023809Y-114534819D02*
X104928571Y-114677676D01*
X104928571Y-114677676D02*
X104833333Y-114772914D01*
X104833333Y-114772914D02*
X104738095Y-114820533D01*
X105928571Y-114534819D02*
X106023809Y-114534819D01*
X106023809Y-114534819D02*
X106119047Y-114582438D01*
X106119047Y-114582438D02*
X106166666Y-114630057D01*
X106166666Y-114630057D02*
X106214285Y-114725295D01*
X106214285Y-114725295D02*
X106261904Y-114915771D01*
X106261904Y-114915771D02*
X106261904Y-115153866D01*
X106261904Y-115153866D02*
X106214285Y-115344342D01*
X106214285Y-115344342D02*
X106166666Y-115439580D01*
X106166666Y-115439580D02*
X106119047Y-115487200D01*
X106119047Y-115487200D02*
X106023809Y-115534819D01*
X106023809Y-115534819D02*
X105928571Y-115534819D01*
X105928571Y-115534819D02*
X105833333Y-115487200D01*
X105833333Y-115487200D02*
X105785714Y-115439580D01*
X105785714Y-115439580D02*
X105738095Y-115344342D01*
X105738095Y-115344342D02*
X105690476Y-115153866D01*
X105690476Y-115153866D02*
X105690476Y-114915771D01*
X105690476Y-114915771D02*
X105738095Y-114725295D01*
X105738095Y-114725295D02*
X105785714Y-114630057D01*
X105785714Y-114630057D02*
X105833333Y-114582438D01*
X105833333Y-114582438D02*
X105928571Y-114534819D01*
X133404761Y-104550057D02*
X133309523Y-104502438D01*
X133309523Y-104502438D02*
X133214285Y-104407200D01*
X133214285Y-104407200D02*
X133071428Y-104264342D01*
X133071428Y-104264342D02*
X132976190Y-104216723D01*
X132976190Y-104216723D02*
X132880952Y-104216723D01*
X132928571Y-104454819D02*
X132833333Y-104407200D01*
X132833333Y-104407200D02*
X132738095Y-104311961D01*
X132738095Y-104311961D02*
X132690476Y-104121485D01*
X132690476Y-104121485D02*
X132690476Y-103788152D01*
X132690476Y-103788152D02*
X132738095Y-103597676D01*
X132738095Y-103597676D02*
X132833333Y-103502438D01*
X132833333Y-103502438D02*
X132928571Y-103454819D01*
X132928571Y-103454819D02*
X133119047Y-103454819D01*
X133119047Y-103454819D02*
X133214285Y-103502438D01*
X133214285Y-103502438D02*
X133309523Y-103597676D01*
X133309523Y-103597676D02*
X133357142Y-103788152D01*
X133357142Y-103788152D02*
X133357142Y-104121485D01*
X133357142Y-104121485D02*
X133309523Y-104311961D01*
X133309523Y-104311961D02*
X133214285Y-104407200D01*
X133214285Y-104407200D02*
X133119047Y-104454819D01*
X133119047Y-104454819D02*
X132928571Y-104454819D01*
X133738095Y-103550057D02*
X133785714Y-103502438D01*
X133785714Y-103502438D02*
X133880952Y-103454819D01*
X133880952Y-103454819D02*
X134119047Y-103454819D01*
X134119047Y-103454819D02*
X134214285Y-103502438D01*
X134214285Y-103502438D02*
X134261904Y-103550057D01*
X134261904Y-103550057D02*
X134309523Y-103645295D01*
X134309523Y-103645295D02*
X134309523Y-103740533D01*
X134309523Y-103740533D02*
X134261904Y-103883390D01*
X134261904Y-103883390D02*
X133690476Y-104454819D01*
X133690476Y-104454819D02*
X134309523Y-104454819D01*
X103454819Y-134761904D02*
X104264342Y-134761904D01*
X104264342Y-134761904D02*
X104359580Y-134714285D01*
X104359580Y-134714285D02*
X104407200Y-134666666D01*
X104407200Y-134666666D02*
X104454819Y-134571428D01*
X104454819Y-134571428D02*
X104454819Y-134380952D01*
X104454819Y-134380952D02*
X104407200Y-134285714D01*
X104407200Y-134285714D02*
X104359580Y-134238095D01*
X104359580Y-134238095D02*
X104264342Y-134190476D01*
X104264342Y-134190476D02*
X103454819Y-134190476D01*
X103883390Y-133571428D02*
X103835771Y-133666666D01*
X103835771Y-133666666D02*
X103788152Y-133714285D01*
X103788152Y-133714285D02*
X103692914Y-133761904D01*
X103692914Y-133761904D02*
X103645295Y-133761904D01*
X103645295Y-133761904D02*
X103550057Y-133714285D01*
X103550057Y-133714285D02*
X103502438Y-133666666D01*
X103502438Y-133666666D02*
X103454819Y-133571428D01*
X103454819Y-133571428D02*
X103454819Y-133380952D01*
X103454819Y-133380952D02*
X103502438Y-133285714D01*
X103502438Y-133285714D02*
X103550057Y-133238095D01*
X103550057Y-133238095D02*
X103645295Y-133190476D01*
X103645295Y-133190476D02*
X103692914Y-133190476D01*
X103692914Y-133190476D02*
X103788152Y-133238095D01*
X103788152Y-133238095D02*
X103835771Y-133285714D01*
X103835771Y-133285714D02*
X103883390Y-133380952D01*
X103883390Y-133380952D02*
X103883390Y-133571428D01*
X103883390Y-133571428D02*
X103931009Y-133666666D01*
X103931009Y-133666666D02*
X103978628Y-133714285D01*
X103978628Y-133714285D02*
X104073866Y-133761904D01*
X104073866Y-133761904D02*
X104264342Y-133761904D01*
X104264342Y-133761904D02*
X104359580Y-133714285D01*
X104359580Y-133714285D02*
X104407200Y-133666666D01*
X104407200Y-133666666D02*
X104454819Y-133571428D01*
X104454819Y-133571428D02*
X104454819Y-133380952D01*
X104454819Y-133380952D02*
X104407200Y-133285714D01*
X104407200Y-133285714D02*
X104359580Y-133238095D01*
X104359580Y-133238095D02*
X104264342Y-133190476D01*
X104264342Y-133190476D02*
X104073866Y-133190476D01*
X104073866Y-133190476D02*
X103978628Y-133238095D01*
X103978628Y-133238095D02*
X103931009Y-133285714D01*
X103931009Y-133285714D02*
X103883390Y-133380952D01*
X129857142Y-120954819D02*
X129523809Y-120478628D01*
X129285714Y-120954819D02*
X129285714Y-119954819D01*
X129285714Y-119954819D02*
X129666666Y-119954819D01*
X129666666Y-119954819D02*
X129761904Y-120002438D01*
X129761904Y-120002438D02*
X129809523Y-120050057D01*
X129809523Y-120050057D02*
X129857142Y-120145295D01*
X129857142Y-120145295D02*
X129857142Y-120288152D01*
X129857142Y-120288152D02*
X129809523Y-120383390D01*
X129809523Y-120383390D02*
X129761904Y-120431009D01*
X129761904Y-120431009D02*
X129666666Y-120478628D01*
X129666666Y-120478628D02*
X129285714Y-120478628D01*
X130809523Y-120954819D02*
X130238095Y-120954819D01*
X130523809Y-120954819D02*
X130523809Y-119954819D01*
X130523809Y-119954819D02*
X130428571Y-120097676D01*
X130428571Y-120097676D02*
X130333333Y-120192914D01*
X130333333Y-120192914D02*
X130238095Y-120240533D01*
X131380952Y-120383390D02*
X131285714Y-120335771D01*
X131285714Y-120335771D02*
X131238095Y-120288152D01*
X131238095Y-120288152D02*
X131190476Y-120192914D01*
X131190476Y-120192914D02*
X131190476Y-120145295D01*
X131190476Y-120145295D02*
X131238095Y-120050057D01*
X131238095Y-120050057D02*
X131285714Y-120002438D01*
X131285714Y-120002438D02*
X131380952Y-119954819D01*
X131380952Y-119954819D02*
X131571428Y-119954819D01*
X131571428Y-119954819D02*
X131666666Y-120002438D01*
X131666666Y-120002438D02*
X131714285Y-120050057D01*
X131714285Y-120050057D02*
X131761904Y-120145295D01*
X131761904Y-120145295D02*
X131761904Y-120192914D01*
X131761904Y-120192914D02*
X131714285Y-120288152D01*
X131714285Y-120288152D02*
X131666666Y-120335771D01*
X131666666Y-120335771D02*
X131571428Y-120383390D01*
X131571428Y-120383390D02*
X131380952Y-120383390D01*
X131380952Y-120383390D02*
X131285714Y-120431009D01*
X131285714Y-120431009D02*
X131238095Y-120478628D01*
X131238095Y-120478628D02*
X131190476Y-120573866D01*
X131190476Y-120573866D02*
X131190476Y-120764342D01*
X131190476Y-120764342D02*
X131238095Y-120859580D01*
X131238095Y-120859580D02*
X131285714Y-120907200D01*
X131285714Y-120907200D02*
X131380952Y-120954819D01*
X131380952Y-120954819D02*
X131571428Y-120954819D01*
X131571428Y-120954819D02*
X131666666Y-120907200D01*
X131666666Y-120907200D02*
X131714285Y-120859580D01*
X131714285Y-120859580D02*
X131761904Y-120764342D01*
X131761904Y-120764342D02*
X131761904Y-120573866D01*
X131761904Y-120573866D02*
X131714285Y-120478628D01*
X131714285Y-120478628D02*
X131666666Y-120431009D01*
X131666666Y-120431009D02*
X131571428Y-120383390D01*
X140704819Y-134761904D02*
X141514342Y-134761904D01*
X141514342Y-134761904D02*
X141609580Y-134714285D01*
X141609580Y-134714285D02*
X141657200Y-134666666D01*
X141657200Y-134666666D02*
X141704819Y-134571428D01*
X141704819Y-134571428D02*
X141704819Y-134380952D01*
X141704819Y-134380952D02*
X141657200Y-134285714D01*
X141657200Y-134285714D02*
X141609580Y-134238095D01*
X141609580Y-134238095D02*
X141514342Y-134190476D01*
X141514342Y-134190476D02*
X140704819Y-134190476D01*
X141704819Y-133666666D02*
X141704819Y-133476190D01*
X141704819Y-133476190D02*
X141657200Y-133380952D01*
X141657200Y-133380952D02*
X141609580Y-133333333D01*
X141609580Y-133333333D02*
X141466723Y-133238095D01*
X141466723Y-133238095D02*
X141276247Y-133190476D01*
X141276247Y-133190476D02*
X140895295Y-133190476D01*
X140895295Y-133190476D02*
X140800057Y-133238095D01*
X140800057Y-133238095D02*
X140752438Y-133285714D01*
X140752438Y-133285714D02*
X140704819Y-133380952D01*
X140704819Y-133380952D02*
X140704819Y-133571428D01*
X140704819Y-133571428D02*
X140752438Y-133666666D01*
X140752438Y-133666666D02*
X140800057Y-133714285D01*
X140800057Y-133714285D02*
X140895295Y-133761904D01*
X140895295Y-133761904D02*
X141133390Y-133761904D01*
X141133390Y-133761904D02*
X141228628Y-133714285D01*
X141228628Y-133714285D02*
X141276247Y-133666666D01*
X141276247Y-133666666D02*
X141323866Y-133571428D01*
X141323866Y-133571428D02*
X141323866Y-133380952D01*
X141323866Y-133380952D02*
X141276247Y-133285714D01*
X141276247Y-133285714D02*
X141228628Y-133238095D01*
X141228628Y-133238095D02*
X141133390Y-133190476D01*
X111789580Y-108166666D02*
X111837200Y-108214285D01*
X111837200Y-108214285D02*
X111884819Y-108357142D01*
X111884819Y-108357142D02*
X111884819Y-108452380D01*
X111884819Y-108452380D02*
X111837200Y-108595237D01*
X111837200Y-108595237D02*
X111741961Y-108690475D01*
X111741961Y-108690475D02*
X111646723Y-108738094D01*
X111646723Y-108738094D02*
X111456247Y-108785713D01*
X111456247Y-108785713D02*
X111313390Y-108785713D01*
X111313390Y-108785713D02*
X111122914Y-108738094D01*
X111122914Y-108738094D02*
X111027676Y-108690475D01*
X111027676Y-108690475D02*
X110932438Y-108595237D01*
X110932438Y-108595237D02*
X110884819Y-108452380D01*
X110884819Y-108452380D02*
X110884819Y-108357142D01*
X110884819Y-108357142D02*
X110932438Y-108214285D01*
X110932438Y-108214285D02*
X110980057Y-108166666D01*
X111884819Y-107690475D02*
X111884819Y-107499999D01*
X111884819Y-107499999D02*
X111837200Y-107404761D01*
X111837200Y-107404761D02*
X111789580Y-107357142D01*
X111789580Y-107357142D02*
X111646723Y-107261904D01*
X111646723Y-107261904D02*
X111456247Y-107214285D01*
X111456247Y-107214285D02*
X111075295Y-107214285D01*
X111075295Y-107214285D02*
X110980057Y-107261904D01*
X110980057Y-107261904D02*
X110932438Y-107309523D01*
X110932438Y-107309523D02*
X110884819Y-107404761D01*
X110884819Y-107404761D02*
X110884819Y-107595237D01*
X110884819Y-107595237D02*
X110932438Y-107690475D01*
X110932438Y-107690475D02*
X110980057Y-107738094D01*
X110980057Y-107738094D02*
X111075295Y-107785713D01*
X111075295Y-107785713D02*
X111313390Y-107785713D01*
X111313390Y-107785713D02*
X111408628Y-107738094D01*
X111408628Y-107738094D02*
X111456247Y-107690475D01*
X111456247Y-107690475D02*
X111503866Y-107595237D01*
X111503866Y-107595237D02*
X111503866Y-107404761D01*
X111503866Y-107404761D02*
X111456247Y-107309523D01*
X111456247Y-107309523D02*
X111408628Y-107261904D01*
X111408628Y-107261904D02*
X111313390Y-107214285D01*
X114833333Y-100274819D02*
X114500000Y-99798628D01*
X114261905Y-100274819D02*
X114261905Y-99274819D01*
X114261905Y-99274819D02*
X114642857Y-99274819D01*
X114642857Y-99274819D02*
X114738095Y-99322438D01*
X114738095Y-99322438D02*
X114785714Y-99370057D01*
X114785714Y-99370057D02*
X114833333Y-99465295D01*
X114833333Y-99465295D02*
X114833333Y-99608152D01*
X114833333Y-99608152D02*
X114785714Y-99703390D01*
X114785714Y-99703390D02*
X114738095Y-99751009D01*
X114738095Y-99751009D02*
X114642857Y-99798628D01*
X114642857Y-99798628D02*
X114261905Y-99798628D01*
X115404762Y-99703390D02*
X115309524Y-99655771D01*
X115309524Y-99655771D02*
X115261905Y-99608152D01*
X115261905Y-99608152D02*
X115214286Y-99512914D01*
X115214286Y-99512914D02*
X115214286Y-99465295D01*
X115214286Y-99465295D02*
X115261905Y-99370057D01*
X115261905Y-99370057D02*
X115309524Y-99322438D01*
X115309524Y-99322438D02*
X115404762Y-99274819D01*
X115404762Y-99274819D02*
X115595238Y-99274819D01*
X115595238Y-99274819D02*
X115690476Y-99322438D01*
X115690476Y-99322438D02*
X115738095Y-99370057D01*
X115738095Y-99370057D02*
X115785714Y-99465295D01*
X115785714Y-99465295D02*
X115785714Y-99512914D01*
X115785714Y-99512914D02*
X115738095Y-99608152D01*
X115738095Y-99608152D02*
X115690476Y-99655771D01*
X115690476Y-99655771D02*
X115595238Y-99703390D01*
X115595238Y-99703390D02*
X115404762Y-99703390D01*
X115404762Y-99703390D02*
X115309524Y-99751009D01*
X115309524Y-99751009D02*
X115261905Y-99798628D01*
X115261905Y-99798628D02*
X115214286Y-99893866D01*
X115214286Y-99893866D02*
X115214286Y-100084342D01*
X115214286Y-100084342D02*
X115261905Y-100179580D01*
X115261905Y-100179580D02*
X115309524Y-100227200D01*
X115309524Y-100227200D02*
X115404762Y-100274819D01*
X115404762Y-100274819D02*
X115595238Y-100274819D01*
X115595238Y-100274819D02*
X115690476Y-100227200D01*
X115690476Y-100227200D02*
X115738095Y-100179580D01*
X115738095Y-100179580D02*
X115785714Y-100084342D01*
X115785714Y-100084342D02*
X115785714Y-99893866D01*
X115785714Y-99893866D02*
X115738095Y-99798628D01*
X115738095Y-99798628D02*
X115690476Y-99751009D01*
X115690476Y-99751009D02*
X115595238Y-99703390D01*
X104236905Y-117884819D02*
X104236905Y-116884819D01*
X104236905Y-116884819D02*
X104475000Y-116884819D01*
X104475000Y-116884819D02*
X104617857Y-116932438D01*
X104617857Y-116932438D02*
X104713095Y-117027676D01*
X104713095Y-117027676D02*
X104760714Y-117122914D01*
X104760714Y-117122914D02*
X104808333Y-117313390D01*
X104808333Y-117313390D02*
X104808333Y-117456247D01*
X104808333Y-117456247D02*
X104760714Y-117646723D01*
X104760714Y-117646723D02*
X104713095Y-117741961D01*
X104713095Y-117741961D02*
X104617857Y-117837200D01*
X104617857Y-117837200D02*
X104475000Y-117884819D01*
X104475000Y-117884819D02*
X104236905Y-117884819D01*
X105284524Y-117884819D02*
X105475000Y-117884819D01*
X105475000Y-117884819D02*
X105570238Y-117837200D01*
X105570238Y-117837200D02*
X105617857Y-117789580D01*
X105617857Y-117789580D02*
X105713095Y-117646723D01*
X105713095Y-117646723D02*
X105760714Y-117456247D01*
X105760714Y-117456247D02*
X105760714Y-117075295D01*
X105760714Y-117075295D02*
X105713095Y-116980057D01*
X105713095Y-116980057D02*
X105665476Y-116932438D01*
X105665476Y-116932438D02*
X105570238Y-116884819D01*
X105570238Y-116884819D02*
X105379762Y-116884819D01*
X105379762Y-116884819D02*
X105284524Y-116932438D01*
X105284524Y-116932438D02*
X105236905Y-116980057D01*
X105236905Y-116980057D02*
X105189286Y-117075295D01*
X105189286Y-117075295D02*
X105189286Y-117313390D01*
X105189286Y-117313390D02*
X105236905Y-117408628D01*
X105236905Y-117408628D02*
X105284524Y-117456247D01*
X105284524Y-117456247D02*
X105379762Y-117503866D01*
X105379762Y-117503866D02*
X105570238Y-117503866D01*
X105570238Y-117503866D02*
X105665476Y-117456247D01*
X105665476Y-117456247D02*
X105713095Y-117408628D01*
X105713095Y-117408628D02*
X105760714Y-117313390D01*
X112261905Y-103954819D02*
X112261905Y-102954819D01*
X112261905Y-102954819D02*
X112500000Y-102954819D01*
X112500000Y-102954819D02*
X112642857Y-103002438D01*
X112642857Y-103002438D02*
X112738095Y-103097676D01*
X112738095Y-103097676D02*
X112785714Y-103192914D01*
X112785714Y-103192914D02*
X112833333Y-103383390D01*
X112833333Y-103383390D02*
X112833333Y-103526247D01*
X112833333Y-103526247D02*
X112785714Y-103716723D01*
X112785714Y-103716723D02*
X112738095Y-103811961D01*
X112738095Y-103811961D02*
X112642857Y-103907200D01*
X112642857Y-103907200D02*
X112500000Y-103954819D01*
X112500000Y-103954819D02*
X112261905Y-103954819D01*
X113404762Y-103383390D02*
X113309524Y-103335771D01*
X113309524Y-103335771D02*
X113261905Y-103288152D01*
X113261905Y-103288152D02*
X113214286Y-103192914D01*
X113214286Y-103192914D02*
X113214286Y-103145295D01*
X113214286Y-103145295D02*
X113261905Y-103050057D01*
X113261905Y-103050057D02*
X113309524Y-103002438D01*
X113309524Y-103002438D02*
X113404762Y-102954819D01*
X113404762Y-102954819D02*
X113595238Y-102954819D01*
X113595238Y-102954819D02*
X113690476Y-103002438D01*
X113690476Y-103002438D02*
X113738095Y-103050057D01*
X113738095Y-103050057D02*
X113785714Y-103145295D01*
X113785714Y-103145295D02*
X113785714Y-103192914D01*
X113785714Y-103192914D02*
X113738095Y-103288152D01*
X113738095Y-103288152D02*
X113690476Y-103335771D01*
X113690476Y-103335771D02*
X113595238Y-103383390D01*
X113595238Y-103383390D02*
X113404762Y-103383390D01*
X113404762Y-103383390D02*
X113309524Y-103431009D01*
X113309524Y-103431009D02*
X113261905Y-103478628D01*
X113261905Y-103478628D02*
X113214286Y-103573866D01*
X113214286Y-103573866D02*
X113214286Y-103764342D01*
X113214286Y-103764342D02*
X113261905Y-103859580D01*
X113261905Y-103859580D02*
X113309524Y-103907200D01*
X113309524Y-103907200D02*
X113404762Y-103954819D01*
X113404762Y-103954819D02*
X113595238Y-103954819D01*
X113595238Y-103954819D02*
X113690476Y-103907200D01*
X113690476Y-103907200D02*
X113738095Y-103859580D01*
X113738095Y-103859580D02*
X113785714Y-103764342D01*
X113785714Y-103764342D02*
X113785714Y-103573866D01*
X113785714Y-103573866D02*
X113738095Y-103478628D01*
X113738095Y-103478628D02*
X113690476Y-103431009D01*
X113690476Y-103431009D02*
X113595238Y-103383390D01*
X132564819Y-127531904D02*
X133374342Y-127531904D01*
X133374342Y-127531904D02*
X133469580Y-127484285D01*
X133469580Y-127484285D02*
X133517200Y-127436666D01*
X133517200Y-127436666D02*
X133564819Y-127341428D01*
X133564819Y-127341428D02*
X133564819Y-127150952D01*
X133564819Y-127150952D02*
X133517200Y-127055714D01*
X133517200Y-127055714D02*
X133469580Y-127008095D01*
X133469580Y-127008095D02*
X133374342Y-126960476D01*
X133374342Y-126960476D02*
X132564819Y-126960476D01*
X132564819Y-126579523D02*
X132564819Y-125960476D01*
X132564819Y-125960476D02*
X132945771Y-126293809D01*
X132945771Y-126293809D02*
X132945771Y-126150952D01*
X132945771Y-126150952D02*
X132993390Y-126055714D01*
X132993390Y-126055714D02*
X133041009Y-126008095D01*
X133041009Y-126008095D02*
X133136247Y-125960476D01*
X133136247Y-125960476D02*
X133374342Y-125960476D01*
X133374342Y-125960476D02*
X133469580Y-126008095D01*
X133469580Y-126008095D02*
X133517200Y-126055714D01*
X133517200Y-126055714D02*
X133564819Y-126150952D01*
X133564819Y-126150952D02*
X133564819Y-126436666D01*
X133564819Y-126436666D02*
X133517200Y-126531904D01*
X133517200Y-126531904D02*
X133469580Y-126579523D01*
X113583333Y-124204819D02*
X113250000Y-123728628D01*
X113011905Y-124204819D02*
X113011905Y-123204819D01*
X113011905Y-123204819D02*
X113392857Y-123204819D01*
X113392857Y-123204819D02*
X113488095Y-123252438D01*
X113488095Y-123252438D02*
X113535714Y-123300057D01*
X113535714Y-123300057D02*
X113583333Y-123395295D01*
X113583333Y-123395295D02*
X113583333Y-123538152D01*
X113583333Y-123538152D02*
X113535714Y-123633390D01*
X113535714Y-123633390D02*
X113488095Y-123681009D01*
X113488095Y-123681009D02*
X113392857Y-123728628D01*
X113392857Y-123728628D02*
X113011905Y-123728628D01*
X114440476Y-123204819D02*
X114250000Y-123204819D01*
X114250000Y-123204819D02*
X114154762Y-123252438D01*
X114154762Y-123252438D02*
X114107143Y-123300057D01*
X114107143Y-123300057D02*
X114011905Y-123442914D01*
X114011905Y-123442914D02*
X113964286Y-123633390D01*
X113964286Y-123633390D02*
X113964286Y-124014342D01*
X113964286Y-124014342D02*
X114011905Y-124109580D01*
X114011905Y-124109580D02*
X114059524Y-124157200D01*
X114059524Y-124157200D02*
X114154762Y-124204819D01*
X114154762Y-124204819D02*
X114345238Y-124204819D01*
X114345238Y-124204819D02*
X114440476Y-124157200D01*
X114440476Y-124157200D02*
X114488095Y-124109580D01*
X114488095Y-124109580D02*
X114535714Y-124014342D01*
X114535714Y-124014342D02*
X114535714Y-123776247D01*
X114535714Y-123776247D02*
X114488095Y-123681009D01*
X114488095Y-123681009D02*
X114440476Y-123633390D01*
X114440476Y-123633390D02*
X114345238Y-123585771D01*
X114345238Y-123585771D02*
X114154762Y-123585771D01*
X114154762Y-123585771D02*
X114059524Y-123633390D01*
X114059524Y-123633390D02*
X114011905Y-123681009D01*
X114011905Y-123681009D02*
X113964286Y-123776247D01*
X133359580Y-109142857D02*
X133407200Y-109190476D01*
X133407200Y-109190476D02*
X133454819Y-109333333D01*
X133454819Y-109333333D02*
X133454819Y-109428571D01*
X133454819Y-109428571D02*
X133407200Y-109571428D01*
X133407200Y-109571428D02*
X133311961Y-109666666D01*
X133311961Y-109666666D02*
X133216723Y-109714285D01*
X133216723Y-109714285D02*
X133026247Y-109761904D01*
X133026247Y-109761904D02*
X132883390Y-109761904D01*
X132883390Y-109761904D02*
X132692914Y-109714285D01*
X132692914Y-109714285D02*
X132597676Y-109666666D01*
X132597676Y-109666666D02*
X132502438Y-109571428D01*
X132502438Y-109571428D02*
X132454819Y-109428571D01*
X132454819Y-109428571D02*
X132454819Y-109333333D01*
X132454819Y-109333333D02*
X132502438Y-109190476D01*
X132502438Y-109190476D02*
X132550057Y-109142857D01*
X133454819Y-108190476D02*
X133454819Y-108761904D01*
X133454819Y-108476190D02*
X132454819Y-108476190D01*
X132454819Y-108476190D02*
X132597676Y-108571428D01*
X132597676Y-108571428D02*
X132692914Y-108666666D01*
X132692914Y-108666666D02*
X132740533Y-108761904D01*
X132788152Y-107333333D02*
X133454819Y-107333333D01*
X132407200Y-107571428D02*
X133121485Y-107809523D01*
X133121485Y-107809523D02*
X133121485Y-107190476D01*
X108429580Y-118666666D02*
X108477200Y-118714285D01*
X108477200Y-118714285D02*
X108524819Y-118857142D01*
X108524819Y-118857142D02*
X108524819Y-118952380D01*
X108524819Y-118952380D02*
X108477200Y-119095237D01*
X108477200Y-119095237D02*
X108381961Y-119190475D01*
X108381961Y-119190475D02*
X108286723Y-119238094D01*
X108286723Y-119238094D02*
X108096247Y-119285713D01*
X108096247Y-119285713D02*
X107953390Y-119285713D01*
X107953390Y-119285713D02*
X107762914Y-119238094D01*
X107762914Y-119238094D02*
X107667676Y-119190475D01*
X107667676Y-119190475D02*
X107572438Y-119095237D01*
X107572438Y-119095237D02*
X107524819Y-118952380D01*
X107524819Y-118952380D02*
X107524819Y-118857142D01*
X107524819Y-118857142D02*
X107572438Y-118714285D01*
X107572438Y-118714285D02*
X107620057Y-118666666D01*
X108524819Y-117714285D02*
X108524819Y-118285713D01*
X108524819Y-117999999D02*
X107524819Y-117999999D01*
X107524819Y-117999999D02*
X107667676Y-118095237D01*
X107667676Y-118095237D02*
X107762914Y-118190475D01*
X107762914Y-118190475D02*
X107810533Y-118285713D01*
X137524819Y-126238094D02*
X136524819Y-126238094D01*
X136524819Y-126238094D02*
X136524819Y-125999999D01*
X136524819Y-125999999D02*
X136572438Y-125857142D01*
X136572438Y-125857142D02*
X136667676Y-125761904D01*
X136667676Y-125761904D02*
X136762914Y-125714285D01*
X136762914Y-125714285D02*
X136953390Y-125666666D01*
X136953390Y-125666666D02*
X137096247Y-125666666D01*
X137096247Y-125666666D02*
X137286723Y-125714285D01*
X137286723Y-125714285D02*
X137381961Y-125761904D01*
X137381961Y-125761904D02*
X137477200Y-125857142D01*
X137477200Y-125857142D02*
X137524819Y-125999999D01*
X137524819Y-125999999D02*
X137524819Y-126238094D01*
X136620057Y-125285713D02*
X136572438Y-125238094D01*
X136572438Y-125238094D02*
X136524819Y-125142856D01*
X136524819Y-125142856D02*
X136524819Y-124904761D01*
X136524819Y-124904761D02*
X136572438Y-124809523D01*
X136572438Y-124809523D02*
X136620057Y-124761904D01*
X136620057Y-124761904D02*
X136715295Y-124714285D01*
X136715295Y-124714285D02*
X136810533Y-124714285D01*
X136810533Y-124714285D02*
X136953390Y-124761904D01*
X136953390Y-124761904D02*
X137524819Y-125333332D01*
X137524819Y-125333332D02*
X137524819Y-124714285D01*
X143024819Y-134392857D02*
X142548628Y-134726190D01*
X143024819Y-134964285D02*
X142024819Y-134964285D01*
X142024819Y-134964285D02*
X142024819Y-134583333D01*
X142024819Y-134583333D02*
X142072438Y-134488095D01*
X142072438Y-134488095D02*
X142120057Y-134440476D01*
X142120057Y-134440476D02*
X142215295Y-134392857D01*
X142215295Y-134392857D02*
X142358152Y-134392857D01*
X142358152Y-134392857D02*
X142453390Y-134440476D01*
X142453390Y-134440476D02*
X142501009Y-134488095D01*
X142501009Y-134488095D02*
X142548628Y-134583333D01*
X142548628Y-134583333D02*
X142548628Y-134964285D01*
X143024819Y-133440476D02*
X143024819Y-134011904D01*
X143024819Y-133726190D02*
X142024819Y-133726190D01*
X142024819Y-133726190D02*
X142167676Y-133821428D01*
X142167676Y-133821428D02*
X142262914Y-133916666D01*
X142262914Y-133916666D02*
X142310533Y-134011904D01*
X143024819Y-132488095D02*
X143024819Y-133059523D01*
X143024819Y-132773809D02*
X142024819Y-132773809D01*
X142024819Y-132773809D02*
X142167676Y-132869047D01*
X142167676Y-132869047D02*
X142262914Y-132964285D01*
X142262914Y-132964285D02*
X142310533Y-133059523D01*
X137392082Y-107136512D02*
X136887006Y-107641588D01*
X136887006Y-107641588D02*
X136752319Y-107708932D01*
X136752319Y-107708932D02*
X136617632Y-107708932D01*
X136617632Y-107708932D02*
X136482945Y-107641588D01*
X136482945Y-107641588D02*
X136415601Y-107574245D01*
X137661456Y-107405886D02*
X138099189Y-107843619D01*
X138099189Y-107843619D02*
X137594113Y-107877291D01*
X137594113Y-107877291D02*
X137695128Y-107978306D01*
X137695128Y-107978306D02*
X137728800Y-108079321D01*
X137728800Y-108079321D02*
X137728800Y-108146665D01*
X137728800Y-108146665D02*
X137695128Y-108247680D01*
X137695128Y-108247680D02*
X137526769Y-108416039D01*
X137526769Y-108416039D02*
X137425754Y-108449710D01*
X137425754Y-108449710D02*
X137358411Y-108449710D01*
X137358411Y-108449710D02*
X137257395Y-108416039D01*
X137257395Y-108416039D02*
X137055365Y-108214008D01*
X137055365Y-108214008D02*
X137021693Y-108112993D01*
X137021693Y-108112993D02*
X137021693Y-108045649D01*
X110788094Y-102438819D02*
X110788094Y-103248342D01*
X110788094Y-103248342D02*
X110835713Y-103343580D01*
X110835713Y-103343580D02*
X110883332Y-103391200D01*
X110883332Y-103391200D02*
X110978570Y-103438819D01*
X110978570Y-103438819D02*
X111169046Y-103438819D01*
X111169046Y-103438819D02*
X111264284Y-103391200D01*
X111264284Y-103391200D02*
X111311903Y-103343580D01*
X111311903Y-103343580D02*
X111359522Y-103248342D01*
X111359522Y-103248342D02*
X111359522Y-102438819D01*
X112264284Y-102438819D02*
X112073808Y-102438819D01*
X112073808Y-102438819D02*
X111978570Y-102486438D01*
X111978570Y-102486438D02*
X111930951Y-102534057D01*
X111930951Y-102534057D02*
X111835713Y-102676914D01*
X111835713Y-102676914D02*
X111788094Y-102867390D01*
X111788094Y-102867390D02*
X111788094Y-103248342D01*
X111788094Y-103248342D02*
X111835713Y-103343580D01*
X111835713Y-103343580D02*
X111883332Y-103391200D01*
X111883332Y-103391200D02*
X111978570Y-103438819D01*
X111978570Y-103438819D02*
X112169046Y-103438819D01*
X112169046Y-103438819D02*
X112264284Y-103391200D01*
X112264284Y-103391200D02*
X112311903Y-103343580D01*
X112311903Y-103343580D02*
X112359522Y-103248342D01*
X112359522Y-103248342D02*
X112359522Y-103010247D01*
X112359522Y-103010247D02*
X112311903Y-102915009D01*
X112311903Y-102915009D02*
X112264284Y-102867390D01*
X112264284Y-102867390D02*
X112169046Y-102819771D01*
X112169046Y-102819771D02*
X111978570Y-102819771D01*
X111978570Y-102819771D02*
X111883332Y-102867390D01*
X111883332Y-102867390D02*
X111835713Y-102915009D01*
X111835713Y-102915009D02*
X111788094Y-103010247D01*
D11*
%TO.C,C7*%
X126490000Y-120390580D02*
X126490000Y-120109420D01*
X127510000Y-120390580D02*
X127510000Y-120109420D01*
%TO.C,R24*%
X101725242Y-113127500D02*
X102199758Y-113127500D01*
X101725242Y-114172500D02*
X102199758Y-114172500D01*
%TO.C,C2*%
X133609420Y-114240000D02*
X133890580Y-114240000D01*
X133609420Y-115260000D02*
X133890580Y-115260000D01*
%TO.C,SW1*%
X141450000Y-121100000D02*
X141450000Y-120900000D01*
X141450000Y-124100000D02*
X141450000Y-122400000D01*
X142500000Y-125950000D02*
X143290000Y-125950000D01*
X143290000Y-119050000D02*
X142500000Y-119050000D01*
X144300000Y-123900000D02*
X145590000Y-123900000D01*
X144300000Y-125350000D02*
X144300000Y-119650000D01*
X145590000Y-122600000D02*
X144300000Y-122600000D01*
X145590000Y-122600000D02*
X145800000Y-122800000D01*
X145590000Y-123900000D02*
X145800000Y-123700000D01*
X145800000Y-123700000D02*
X145800000Y-122800000D01*
%TO.C,R7*%
X127262742Y-122977500D02*
X127737258Y-122977500D01*
X127262742Y-124022500D02*
X127737258Y-124022500D01*
%TO.C,R14*%
X116477500Y-109512742D02*
X116477500Y-109987258D01*
X117522500Y-109512742D02*
X117522500Y-109987258D01*
%TO.C,R9*%
X138762742Y-113227500D02*
X139237258Y-113227500D01*
X138762742Y-114272500D02*
X139237258Y-114272500D01*
%TO.C,D1*%
X115600000Y-118760000D02*
X115600000Y-113250000D01*
X115600000Y-118760000D02*
X118900000Y-118760000D01*
X118900000Y-118760000D02*
X118900000Y-113250000D01*
%TO.C,R25*%
X101725242Y-110727500D02*
X102199758Y-110727500D01*
X101725242Y-111772500D02*
X102199758Y-111772500D01*
%TO.C,D7*%
X114450000Y-105985000D02*
X116735000Y-105985000D01*
X116735000Y-104515000D02*
X114450000Y-104515000D01*
X116735000Y-105985000D02*
X116735000Y-104515000D01*
%TO.C,R22*%
X127762742Y-110977500D02*
X128237258Y-110977500D01*
X127762742Y-112022500D02*
X128237258Y-112022500D01*
%TO.C,C16*%
X135740000Y-114359420D02*
X135740000Y-114640580D01*
X136760000Y-114359420D02*
X136760000Y-114640580D01*
%TO.C,R2*%
X121777500Y-109562742D02*
X121777500Y-110037258D01*
X122822500Y-109562742D02*
X122822500Y-110037258D01*
D12*
%TO.C,U5*%
X109500000Y-110440000D02*
X113500000Y-110440000D01*
X109500000Y-115540000D02*
X113500000Y-115540000D01*
D13*
X107155000Y-110485000D02*
G75*
G02*
X106955000Y-110485000I-100000J0D01*
G01*
X106955000Y-110485000D02*
G75*
G02*
X107155000Y-110485000I100000J0D01*
G01*
D11*
%TO.C,C4*%
X107490000Y-129915580D02*
X107490000Y-129634420D01*
X108510000Y-129915580D02*
X108510000Y-129634420D01*
%TO.C,C8*%
X116140580Y-119990000D02*
X115859420Y-119990000D01*
X116140580Y-121010000D02*
X115859420Y-121010000D01*
%TO.C,C5*%
X107490000Y-126140580D02*
X107490000Y-125859420D01*
X108510000Y-126140580D02*
X108510000Y-125859420D01*
%TO.C,R10*%
X106977500Y-134237258D02*
X106977500Y-133762742D01*
X108022500Y-134237258D02*
X108022500Y-133762742D01*
D14*
%TO.C,U7*%
X139174500Y-110662139D02*
X139174500Y-111337861D01*
X139174500Y-112651000D02*
X140825500Y-112651000D01*
X140825500Y-109349000D02*
X139174500Y-109349000D01*
X140825500Y-110387860D02*
X140825500Y-109349000D01*
X140825500Y-112651000D02*
X140825500Y-111612140D01*
X138806200Y-108206000D02*
G75*
G02*
X138552200Y-108206000I-127000J0D01*
G01*
X138552200Y-108206000D02*
G75*
G02*
X138806200Y-108206000I127000J0D01*
G01*
D11*
%TO.C,C10*%
X136640580Y-108990000D02*
X136359420Y-108990000D01*
X136640580Y-110010000D02*
X136359420Y-110010000D01*
%TO.C,C12*%
X142890580Y-127490000D02*
X142609420Y-127490000D01*
X142890580Y-128510000D02*
X142609420Y-128510000D01*
%TO.C,U1*%
X121540000Y-112390000D02*
X122265000Y-112390000D01*
X121540000Y-113115000D02*
X121540000Y-112390000D01*
X121540000Y-117610000D02*
X121540000Y-116885000D01*
X122265000Y-117610000D02*
X121540000Y-117610000D01*
X126035000Y-112390000D02*
X126760000Y-112390000D01*
X126760000Y-112390000D02*
X126760000Y-113115000D01*
X126760000Y-116885000D02*
X126760000Y-117610000D01*
X126760000Y-117610000D02*
X126035000Y-117610000D01*
X121040000Y-113500000D02*
X120710000Y-113740000D01*
X120710000Y-113260000D01*
X121040000Y-113500000D01*
G36*
X121040000Y-113500000D02*
G01*
X120710000Y-113740000D01*
X120710000Y-113260000D01*
X121040000Y-113500000D01*
G37*
%TO.C,J4*%
X101977119Y-140597505D02*
X104402495Y-143022881D01*
X103073134Y-137705438D02*
X104098439Y-136680134D01*
X104098439Y-136680134D02*
X105371231Y-137952926D01*
X105371231Y-137952926D02*
X106071267Y-137252890D01*
X107294562Y-141926866D02*
X108319866Y-140901561D01*
X108319866Y-140901561D02*
X107047074Y-139628769D01*
%TO.C,Q1*%
X111440000Y-117240000D02*
X111490000Y-117240000D01*
X111440000Y-118760000D02*
X111440000Y-117240000D01*
X112440000Y-118760000D02*
X111440000Y-118760000D01*
X112610000Y-117240000D02*
X113390000Y-117240000D01*
X114510000Y-117240000D02*
X114560000Y-117240000D01*
X114560000Y-117240000D02*
X114560000Y-118760000D01*
X114560000Y-118760000D02*
X113560000Y-118760000D01*
X113380000Y-116700000D02*
X113050000Y-116940000D01*
X113050000Y-116460000D01*
X113380000Y-116700000D01*
G36*
X113380000Y-116700000D02*
G01*
X113050000Y-116940000D01*
X113050000Y-116460000D01*
X113380000Y-116700000D01*
G37*
%TO.C,R5*%
X115762742Y-121727500D02*
X116237258Y-121727500D01*
X115762742Y-122772500D02*
X116237258Y-122772500D01*
%TO.C,R4*%
X137977500Y-121762742D02*
X137977500Y-122237258D01*
X139022500Y-121762742D02*
X139022500Y-122237258D01*
%TO.C,D6*%
X144360000Y-129650000D02*
X141700000Y-129650000D01*
X144360000Y-131350000D02*
X141700000Y-131350000D01*
X144360000Y-131350000D02*
X144360000Y-129650000D01*
%TO.C,R15*%
X114727500Y-108487258D02*
X114727500Y-108012742D01*
X115772500Y-108487258D02*
X115772500Y-108012742D01*
%TO.C,D11*%
X104200000Y-111975000D02*
X106485000Y-111975000D01*
X106485000Y-110505000D02*
X104200000Y-110505000D01*
X106485000Y-111975000D02*
X106485000Y-110505000D01*
%TO.C,D5*%
X104150000Y-128390000D02*
X104150000Y-131050000D01*
X105850000Y-128390000D02*
X104150000Y-128390000D01*
X105850000Y-128390000D02*
X105850000Y-131050000D01*
%TO.C,R17*%
X141477500Y-115762742D02*
X141477500Y-116237258D01*
X142522500Y-115762742D02*
X142522500Y-116237258D01*
%TO.C,U4*%
X120350000Y-119600000D02*
X120350000Y-120125000D01*
X120350000Y-119600000D02*
X120875000Y-119600000D01*
X120350000Y-123375000D02*
X120350000Y-123600000D01*
X120815000Y-123900000D02*
X120590000Y-123900000D01*
X124650000Y-119600000D02*
X124125000Y-119600000D01*
X124650000Y-119600000D02*
X124650000Y-120125000D01*
X124650000Y-123900000D02*
X124125000Y-123900000D01*
X124650000Y-123900000D02*
X124650000Y-123375000D01*
X120350000Y-123900000D02*
X120020000Y-124140000D01*
X120020000Y-123660000D01*
X120350000Y-123900000D01*
G36*
X120350000Y-123900000D02*
G01*
X120020000Y-124140000D01*
X120020000Y-123660000D01*
X120350000Y-123900000D01*
G37*
%TO.C,J1*%
X117800000Y-101000000D02*
X117800000Y-99100000D01*
X117800000Y-104900000D02*
X117800000Y-102900000D01*
X127200000Y-99100000D02*
X117800000Y-99100000D01*
X127200000Y-101000000D02*
X127200000Y-99100000D01*
X127200000Y-104900000D02*
X127200000Y-102900000D01*
%TO.C,U2*%
X137090000Y-116440000D02*
X138910000Y-116440000D01*
X137090000Y-116490000D02*
X137090000Y-116440000D01*
X137090000Y-118390000D02*
X137090000Y-117610000D01*
X137090000Y-119560000D02*
X137090000Y-119510000D01*
X138910000Y-116440000D02*
X138910000Y-116490000D01*
X138910000Y-119510000D02*
X138910000Y-119560000D01*
X138910000Y-119560000D02*
X137090000Y-119560000D01*
X139690000Y-119840000D02*
X139210000Y-119840000D01*
X139450000Y-119510000D01*
X139690000Y-119840000D01*
G36*
X139690000Y-119840000D02*
G01*
X139210000Y-119840000D01*
X139450000Y-119510000D01*
X139690000Y-119840000D01*
G37*
%TO.C,R16*%
X102062258Y-108477500D02*
X101587742Y-108477500D01*
X102062258Y-109522500D02*
X101587742Y-109522500D01*
%TO.C,J5*%
X136680134Y-140901561D02*
X137952926Y-139628769D01*
X137705438Y-141926866D02*
X136680134Y-140901561D01*
X137952926Y-139628769D02*
X137252890Y-138928733D01*
X140597505Y-143022881D02*
X143022881Y-140597505D01*
X140901561Y-136680134D02*
X139628769Y-137952926D01*
X141926866Y-137705438D02*
X140901561Y-136680134D01*
%TO.C,J6*%
X100940000Y-120785000D02*
X100940000Y-124215000D01*
X103760000Y-119515000D02*
X105210000Y-119515000D01*
X103760000Y-125485000D02*
X105210000Y-125485000D01*
X105210000Y-119515000D02*
X105210000Y-121315000D01*
X105210000Y-121315000D02*
X106200000Y-121315000D01*
X105210000Y-125485000D02*
X105210000Y-123685000D01*
%TO.C,C13*%
X127490000Y-115140580D02*
X127490000Y-114859420D01*
X128510000Y-115140580D02*
X128510000Y-114859420D01*
%TO.C,J7*%
X109120000Y-122620000D02*
X110500000Y-122620000D01*
X109120000Y-124000000D02*
X109120000Y-122620000D01*
X109120000Y-125270000D02*
X109120000Y-138080000D01*
X109120000Y-125270000D02*
X111880000Y-125270000D01*
X109120000Y-138080000D02*
X111880000Y-138080000D01*
X111880000Y-125270000D02*
X111880000Y-138080000D01*
%TO.C,D3*%
X111150000Y-106390000D02*
X111150000Y-109050000D01*
X112850000Y-106390000D02*
X111150000Y-106390000D01*
X112850000Y-106390000D02*
X112850000Y-109050000D01*
%TO.C,R21*%
X128012742Y-108727500D02*
X128487258Y-108727500D01*
X128012742Y-109772500D02*
X128487258Y-109772500D01*
%TO.C,C3*%
X134140580Y-143490000D02*
X133859420Y-143490000D01*
X134140580Y-144510000D02*
X133859420Y-144510000D01*
%TO.C,R19*%
X133762742Y-117477500D02*
X134237258Y-117477500D01*
X133762742Y-118522500D02*
X134237258Y-118522500D01*
%TO.C,R20*%
X129077500Y-115237258D02*
X129077500Y-114762742D01*
X130122500Y-115237258D02*
X130122500Y-114762742D01*
%TO.C,C11*%
X102350000Y-129766920D02*
X102350000Y-130048080D01*
X103370000Y-129766920D02*
X103370000Y-130048080D01*
%TO.C,R12*%
X133227500Y-141737258D02*
X133227500Y-141262742D01*
X134272500Y-141737258D02*
X134272500Y-141262742D01*
%TO.C,J8*%
X132870000Y-122620000D02*
X134250000Y-122620000D01*
X132870000Y-124000000D02*
X132870000Y-122620000D01*
X132870000Y-125270000D02*
X132870000Y-138080000D01*
X132870000Y-125270000D02*
X135630000Y-125270000D01*
X132870000Y-138080000D02*
X135630000Y-138080000D01*
X135630000Y-125270000D02*
X135630000Y-138080000D01*
%TO.C,C6*%
X130359420Y-121490000D02*
X130640580Y-121490000D01*
X130359420Y-122510000D02*
X130640580Y-122510000D01*
%TO.C,R3*%
X120027500Y-109512742D02*
X120027500Y-109987258D01*
X121072500Y-109512742D02*
X121072500Y-109987258D01*
%TO.C,J2*%
X103073134Y-107294562D02*
X104098439Y-108319866D01*
X104098439Y-108319866D02*
X105371231Y-107047074D01*
X104402495Y-101977119D02*
X101977119Y-104402495D01*
X107047074Y-105371231D02*
X107747110Y-106071267D01*
X107294562Y-103073134D02*
X108319866Y-104098439D01*
X108319866Y-104098439D02*
X107047074Y-105371231D01*
%TO.C,D4*%
X137910000Y-110550000D02*
X135250000Y-110550000D01*
X137910000Y-112250000D02*
X135250000Y-112250000D01*
X137910000Y-112250000D02*
X137910000Y-110550000D01*
%TO.C,C15*%
X130490000Y-110140580D02*
X130490000Y-109859420D01*
X131510000Y-110140580D02*
X131510000Y-109859420D01*
%TO.C,R23*%
X101725242Y-115477500D02*
X102199758Y-115477500D01*
X101725242Y-116522500D02*
X102199758Y-116522500D01*
%TO.C,R1*%
X123777500Y-109562742D02*
X123777500Y-110037258D01*
X124822500Y-109562742D02*
X124822500Y-110037258D01*
%TO.C,R13*%
X133762742Y-138727500D02*
X134237258Y-138727500D01*
X133762742Y-139772500D02*
X134237258Y-139772500D01*
%TO.C,D10*%
X104200000Y-114385000D02*
X106485000Y-114385000D01*
X106485000Y-112915000D02*
X104200000Y-112915000D01*
X106485000Y-114385000D02*
X106485000Y-112915000D01*
%TO.C,Q2*%
X129590000Y-102940000D02*
X131410000Y-102940000D01*
X129590000Y-102990000D02*
X129590000Y-102940000D01*
X129590000Y-106060000D02*
X129590000Y-106010000D01*
X131410000Y-102940000D02*
X131410000Y-102990000D01*
X131410000Y-106010000D02*
X131410000Y-106060000D01*
X131410000Y-106060000D02*
X129590000Y-106060000D01*
X132190000Y-106340000D02*
X131710000Y-106340000D01*
X131950000Y-106010000D01*
X132190000Y-106340000D01*
G36*
X132190000Y-106340000D02*
G01*
X131710000Y-106340000D01*
X131950000Y-106010000D01*
X132190000Y-106340000D01*
G37*
D14*
%TO.C,U8*%
X103174500Y-132349000D02*
X103174500Y-133387860D01*
X103174500Y-134612140D02*
X103174500Y-135651000D01*
X103174500Y-135651000D02*
X104825500Y-135651000D01*
X104825500Y-132349000D02*
X103174500Y-132349000D01*
X104825500Y-134337861D02*
X104825500Y-133662139D01*
X105447800Y-136794000D02*
G75*
G02*
X105193800Y-136794000I-127000J0D01*
G01*
X105193800Y-136794000D02*
G75*
G02*
X105447800Y-136794000I127000J0D01*
G01*
D11*
%TO.C,R18*%
X130737258Y-118977500D02*
X130262742Y-118977500D01*
X130737258Y-120022500D02*
X130262742Y-120022500D01*
D14*
%TO.C,U9*%
X140424500Y-132349000D02*
X140424500Y-133387860D01*
X140424500Y-134612140D02*
X140424500Y-135651000D01*
X140424500Y-135651000D02*
X142075500Y-135651000D01*
X142075500Y-132349000D02*
X140424500Y-132349000D01*
X142075500Y-134337861D02*
X142075500Y-133662139D01*
X142697800Y-136794000D02*
G75*
G02*
X142443800Y-136794000I-127000J0D01*
G01*
X142443800Y-136794000D02*
G75*
G02*
X142697800Y-136794000I127000J0D01*
G01*
D11*
%TO.C,C9*%
X109490000Y-107859420D02*
X109490000Y-108140580D01*
X110510000Y-107859420D02*
X110510000Y-108140580D01*
%TO.C,R8*%
X114762742Y-100727500D02*
X115237258Y-100727500D01*
X114762742Y-101772500D02*
X115237258Y-101772500D01*
%TO.C,D9*%
X104175000Y-116735000D02*
X106460000Y-116735000D01*
X106460000Y-115265000D02*
X104175000Y-115265000D01*
X106460000Y-116735000D02*
X106460000Y-115265000D01*
%TO.C,D8*%
X114487500Y-104235000D02*
X116772500Y-104235000D01*
X116772500Y-102765000D02*
X114487500Y-102765000D01*
X116772500Y-104235000D02*
X116772500Y-102765000D01*
%TO.C,U3*%
X113380000Y-125320000D02*
X114380000Y-125320000D01*
X113380000Y-126100000D02*
X113380000Y-125320000D01*
X113380000Y-151060000D02*
X113380000Y-144645000D01*
X131620000Y-125320000D02*
X130620000Y-125320000D01*
X131620000Y-126100000D02*
X131620000Y-125320000D01*
X131620000Y-151060000D02*
X113380000Y-151060000D01*
X131620000Y-151060000D02*
X131620000Y-144900000D01*
X131625000Y-144675000D02*
X131625000Y-144175000D01*
X132125000Y-144175000D01*
X131625000Y-144675000D01*
G36*
X131625000Y-144675000D02*
G01*
X131625000Y-144175000D01*
X132125000Y-144175000D01*
X131625000Y-144675000D01*
G37*
%TO.C,R6*%
X115762742Y-123377500D02*
X116237258Y-123377500D01*
X115762742Y-124422500D02*
X116237258Y-124422500D01*
%TO.C,C14*%
X132490000Y-111640580D02*
X132490000Y-111359420D01*
X133510000Y-111640580D02*
X133510000Y-111359420D01*
%TO.C,C1*%
X108990000Y-118640580D02*
X108990000Y-118359420D01*
X110010000Y-118640580D02*
X110010000Y-118359420D01*
%TO.C,D2*%
X137765000Y-124700000D02*
X137765000Y-126985000D01*
X137765000Y-126985000D02*
X139235000Y-126985000D01*
X139235000Y-126985000D02*
X139235000Y-124700000D01*
%TO.C,R11*%
X143477500Y-133987258D02*
X143477500Y-133512742D01*
X144522500Y-133987258D02*
X144522500Y-133512742D01*
%TO.C,J3*%
X136680134Y-104098439D02*
X137952926Y-105371231D01*
X137705438Y-103073134D02*
X136680134Y-104098439D01*
X139628769Y-107047074D02*
X138928733Y-107747110D01*
X140901561Y-108319866D02*
X139628769Y-107047074D01*
X141926866Y-107294562D02*
X140901561Y-108319866D01*
X143022881Y-104402495D02*
X140597505Y-101977119D01*
D14*
%TO.C,U6*%
X109898999Y-102158500D02*
X109898999Y-103809500D01*
X110937859Y-102158500D02*
X109898999Y-102158500D01*
X111212138Y-103809500D02*
X111887860Y-103809500D01*
X113200999Y-102158500D02*
X112162139Y-102158500D01*
X113200999Y-103809500D02*
X113200999Y-102158500D01*
X108882999Y-104304800D02*
G75*
G02*
X108628999Y-104304800I-127000J0D01*
G01*
X108628999Y-104304800D02*
G75*
G02*
X108882999Y-104304800I127000J0D01*
G01*
%TD*%
M02*
